<svg xmlns="http://www.w3.org/2000/svg" viewBox="0 0 145 48">
<path style="fill:#CC4488;" d="M11.07,14.77c0,2.94-2.02,4.98-5.9,4.98c-2.11,0-3.59-0.12-4.69-0.27c-0.27-0.03-0.39-0.24-0.39-0.42
	c0-1.34-0.12-15.9-0.09-16.94c0-0.18,0.06-0.33,0.3-0.39C1.64,1.45,3.15,1.3,4.6,1.3c4.04,0,6.29,1.6,6.29,5.16
	c0,1.57-0.53,3.2-2.14,4.18C10.39,11.42,11.07,13.17,11.07,14.77z M2.62,9.79c0,0.15,0.15,0.36,0.33,0.36
	c2.79-0.06,3.74-0.98,3.74-3.09c0-1.75-1.04-2.4-2.97-2.4c-0.45,0-0.83,0.09-1.19,0.18L2.62,9.79z M4.43,17.21
	C4.87,17.3,5.2,17.3,5.76,17.3c2.11,0,2.79-1.25,2.79-2.46c0-1.75-1.04-2.43-2.82-2.43c-0.71,0-1.01,0.06-1.31,0.18
	C4.31,13.44,4.34,16.11,4.43,17.21z M20.47,16.47H16.1c-0.18,0-0.24,0.09-0.27,0.21L15,19.77c-0.06,0.18-0.18,0.3-0.39,0.3
	c-0.53,0.03-1.63,0.03-1.96-0.03c-0.18-0.03-0.27-0.12-0.24-0.33c1.1-4.93,3.68-13.65,4.66-16.38C17.2,3,17.44,2.94,17.65,2.94h3.47
	c0.3,0,0.53,0.12,0.59,0.42c0.8,3.68,3.5,13.32,4.51,18.31c0.06,0.3,0,0.36-0.27,0.47c-0.42,0.18-2.94,0.74-3.5,0.77
	c-0.27,0-0.39-0.15-0.45-0.36L20.47,16.47z M21.18,13.94c0.3,0,0.39-0.09,0.33-0.39c-0.09-0.45-1.19-5.04-1.36-6.17
	c-0.39,1.1-1.48,5.85-1.72,6.56C18.43,13.94,21.18,13.94,21.18,13.94z M35.57,15.75c0-0.18,0.06-0.36,0.33-0.39
	c0.42-0.06,1.25-0.06,1.87,0c0.27,0.03,0.33,0.21,0.33,0.42c0,3.68-1.25,5.79-4.93,5.79c-4.3,0-5.76-2.22-5.76-8.4
	c0-7.06,1.63-9.7,5.99-9.7c4.03,0,5.52,2.2,5.52,5.16c0,0.47-0.12,1.45-0.18,1.84c-0.06,0.27-0.21,0.47-0.56,0.47
	c-1.1,0.03-2.4,0-3.29-0.09c-0.33-0.03-0.42-0.33-0.42-0.45c0-0.3,0.09-0.8,0.09-1.45c0-1.25-0.27-2.11-1.81-2.11
	c-1.51,0-1.93,1.25-1.93,6.17c0,5.28,0.5,6.08,2.61,6.08c1.34,0,2.14-1.13,2.14-2.7V15.75z M41.4,19.91c-0.21,0-0.33-0.21-0.33-0.36
	c0.06-2.97,0-12.67,0-15.46c0-0.24,0.15-0.36,0.36-0.39c0.42-0.03,3.15-0.06,3.65,0c0.24,0.03,0.36,0.18,0.36,0.39
	c0,0.89-0.06,3.35-0.09,5.37c1.84-2.34,6.56-8.34,7.21-9.32C52.65,0,52.89-0.03,53,0.03c0.24,0.12,1.28,0.95,1.57,1.16
	c0.15,0.09,0.18,0.27,0.09,0.42c-0.12,0.21-5.73,7.54-7.12,9.38c1.72,2.52,6.08,8.81,6.17,8.99c0.12,0.24,0.15,0.39-0.03,0.56
	c-0.62,0.53-2.37,1.81-3.09,2.14c-0.21,0.06-0.36-0.06-0.42-0.18c-0.47-0.74-4.39-6.53-6.17-8.93c-0.21-0.24-0.36-0.18-0.36,0.06
	c0,2.61,0.03,5.19,0,5.99c0,0.18-0.12,0.3-0.3,0.3L41.4,19.91L41.4,19.91z M59.22,10.98c0-0.24,0.15-0.42,0.42-0.42
	c1.25,0,4.93-0.03,6.11,0.06c0.21,0.03,0.3,0.18,0.33,0.36c0.09,0.53,0.18,2.64,0.18,3.5c0,3.83-1.54,6.05-5.79,6.05
	c-3.71,0-5.7-2.26-5.7-9.94c0-6.62,2.34-8.99,5.99-8.99c3.62,0,6.05,1.87,6.05,6.53c0,0.3-0.18,0.45-0.45,0.45
	c-0.53,0.03-3.03,0-3.47,0c-0.36,0-0.47-0.18-0.47-0.45c0-1.72-0.59-3-2.23-3c-1.93,0-2.85,1.19-2.85,5.79
	c0,5.61,1.45,6.88,3.14,6.88c1.54,0,2.34-0.68,2.37-2.55c0-0.21-0.15-0.33-0.33-0.33c-0.03,0-2.14-0.03-2.97-0.03
	c-0.21,0-0.36-0.12-0.36-0.39v-3.52H59.22z M75.99,16.47h-4.36c-0.18,0-0.24,0.09-0.27,0.21l-0.83,3.09
	c-0.06,0.18-0.18,0.3-0.39,0.3c-0.53,0.03-1.63,0.03-1.96-0.03c-0.18-0.03-0.27-0.12-0.24-0.33c1.1-4.93,3.68-13.65,4.66-16.38
	c0.12-0.33,0.36-0.39,0.56-0.39h3.47c0.3,0,0.53,0.12,0.59,0.42c0.8,3.68,3.5,13.32,4.51,18.31c0.06,0.3,0,0.36-0.27,0.47
	c-0.42,0.18-2.94,0.74-3.5,0.77c-0.27,0-0.39-0.15-0.45-0.36L75.99,16.47z M76.71,13.94c0.3,0,0.39-0.09,0.33-0.39
	c-0.09-0.45-1.19-5.04-1.36-6.17c-0.39,1.1-1.48,5.85-1.72,6.56C73.96,13.94,76.71,13.94,76.71,13.94z M94.09,2.08
	c0.03-0.15,0.15-0.27,0.39-0.3c0.33-0.03,2.79-0.03,3.14,0c0.36,0.03,0.45,0.21,0.45,0.5c0.18,4.84,0.86,14.72,1.01,19.85
	c0,0.24-0.09,0.39-0.3,0.42c-0.56,0.09-2.08,0.18-2.43,0.18c-0.3,0-0.42-0.12-0.42-0.36c-0.06-2.08-0.48-9.11-0.56-12.49
	c0-0.3-0.24-0.3-0.3-0.06c-0.8,2.85-1.51,7.92-1.84,8.78c-0.09,0.21-0.18,0.36-0.45,0.39c-0.18,0.03-3.62,0.03-3.77,0.03
	c-0.3,0-0.45-0.12-0.5-0.36c-0.48-1.69-0.89-5.28-1.75-8.54c-0.09-0.33-0.27-0.18-0.3,0.03c-0.21,2.61-0.53,9.02-0.53,9.29
	c0,0.27-0.12,0.33-0.36,0.36s-1.81,0.03-1.9,0.03c-0.21,0-0.33-0.09-0.33-0.27c-0.06-1.34,0.77-14.18,0.92-17.68
	c0-0.21,0.18-0.42,0.42-0.45c1.01-0.09,3.29-0.09,4.33,0c0.33,0.03,0.42,0.18,0.47,0.36c0.45,1.28,1.69,7.77,2.31,11.45
	C92.63,9.2,93.64,3.68,94.09,2.08z M111.88,2.08c0.03-0.15,0.15-0.27,0.39-0.3c0.33-0.03,2.79-0.03,3.14,0
	c0.36,0.03,0.45,0.21,0.45,0.5c0.18,4.84,0.86,14.72,1.01,19.85c0,0.24-0.09,0.39-0.3,0.42c-0.56,0.09-2.08,0.18-2.43,0.18
	c-0.3,0-0.42-0.12-0.42-0.36c-0.06-2.08-0.48-9.11-0.56-12.49c0-0.3-0.24-0.3-0.3-0.06c-0.8,2.85-1.51,7.92-1.84,8.78
	c-0.09,0.21-0.18,0.36-0.45,0.39c-0.18,0.03-3.62,0.03-3.77,0.03c-0.3,0-0.45-0.12-0.5-0.36c-0.48-1.69-0.89-5.28-1.75-8.54
	c-0.09-0.33-0.27-0.18-0.3,0.03c-0.21,2.61-0.53,9.02-0.53,9.29c0,0.27-0.12,0.33-0.36,0.36s-1.81,0.03-1.9,0.03
	c-0.21,0-0.33-0.09-0.33-0.27c-0.06-1.34,0.77-14.18,0.92-17.68c0-0.21,0.18-0.42,0.42-0.45c1.01-0.09,3.29-0.09,4.33,0
	c0.33,0.03,0.42,0.18,0.47,0.36c0.45,1.28,1.69,7.77,2.31,11.45C110.42,9.2,111.43,3.68,111.88,2.08z M118.8,13.08
	c0-6.73,1.81-9.46,5.85-9.46c4.54,0,6.08,2.34,6.08,8.4c0,7.6-1.34,9.85-5.67,9.85C120.76,21.87,118.8,19.73,118.8,13.08z
	 M128.21,12.55c0-4.15-0.53-5.73-2.55-5.73c-1.96,0-2.43,1.81-2.43,6.5s0.77,6.11,2.55,6.11C127.62,19.43,128.21,17.83,128.21,12.55
	z M141.91,21.48c-0.27,0-0.5-0.09-0.59-0.3c-0.71-1.72-3.03-7.3-4.42-10.21c-0.15-0.3-0.39-0.27-0.39,0.03
	c0,3.2,0.15,7.27,0.24,8.54c0,0.21-0.12,0.33-0.33,0.36c-0.53,0.06-2.37,0.09-2.85,0.03c-0.24-0.03-0.36-0.18-0.36-0.42
	c0-2.79-0.12-10.86-0.09-15.1c0-0.18,0.09-0.36,0.33-0.39c0.39-0.06,2.14-0.09,2.67-0.09c0.27,0,0.45,0.12,0.56,0.39
	c0.89,1.99,1.87,4.42,3.38,7.6c0.06,0.12,0.3,0.15,0.3-0.06c0-3.83-0.18-8.54-0.18-10.95c0-0.3,0.09-0.45,0.39-0.48
	c0.62-0.03,3.15-0.06,3.77,0.03c0.24,0.03,0.39,0.12,0.39,0.42c-0.06,4.33,0,15.01,0.03,19.88c0,0.18-0.15,0.33-0.36,0.39
	C143.92,21.3,142.32,21.48,141.91,21.48z"/>
<path style="fill:#FFBB55;" d="M31.71,47.18c-1.05,0-2.39-0.77-2.92-1.68l-4.02-6.96c-0.2-0.34-0.24-0.64-0.13-0.83
	c0.11-0.19,0.4-0.3,0.79-0.3h8.04c1.05,0,2.39,0.77,2.92,1.68l4.02,6.96c0.2,0.34,0.24,0.64,0.13,0.83c-0.11,0.19-0.4,0.3-0.79,0.3
	H31.71z M56.12,39.11c0-1.05-0.77-2.39-1.68-2.92l-6.96-4.02c-0.22-0.13-0.42-0.19-0.59-0.19c-0.09,0-0.17,0.02-0.24,0.06
	c-0.19,0.11-0.3,0.4-0.3,0.79v8.04c0,1.05,0.77,2.39,1.68,2.92l6.96,4.02c0.34,0.2,0.64,0.24,0.83,0.13c0.19-0.11,0.3-0.4,0.3-0.79
	V39.11z"/>
<path style="fill:#FF77BB;" d="M45.25,41.02l-2.58,4.48c-0.39,0.68-0.92,0.68-1.31,0l-4.02-6.96c-0.53-0.91-0.53-2.45,0-3.37
	l4.02-6.96c0.39-0.68,0.92-0.68,1.31,0l2.58,4.48c0,0.05-0.01,0.1-0.01,0.15v8.04C45.24,40.92,45.25,40.97,45.25,41.02z
	 M57.52,47.94c0.19,0.11,0.5,0.06,0.83-0.13l6.96-4.02c0.91-0.53,1.68-1.86,1.68-2.92v-8.04c0-0.39-0.11-0.68-0.3-0.79
	c-0.07-0.04-0.15-0.06-0.24-0.06c-0.17,0-0.37,0.07-0.59,0.19L58.9,36.2c-0.91,0.53-1.68,1.86-1.68,2.92v8.04
	C57.22,47.54,57.33,47.83,57.52,47.94z"/>
<path style="fill:#313131;" d="M33.78,42.29c0.33,0.57,0.06,1.03-0.6,1.03s-1.46-0.46-1.79-1.03c-0.33-0.57-0.06-1.03,0.6-1.03
	C32.65,41.26,33.46,41.72,33.78,42.29z M41.42,37.89c0.33,0.57,0.86,0.57,1.19,0c0.33-0.57,0.33-1.5,0-2.07s-0.86-0.57-1.19,0
	S41.09,37.31,41.42,37.89z M41.42,41.33c0.33-0.57,0.86-0.57,1.19,0c0.33,0.57,0.33,1.5,0,2.07s-0.86,0.57-1.19,0
	S41.09,41.9,41.42,41.33z M41.42,30.3c0.33-0.57,0.86-0.57,1.19,0c0.33,0.57,0.33,1.5,0,2.07s-0.86,0.57-1.19,0
	S41.09,30.87,41.42,30.3z M31.4,31.41c-0.33,0.57-0.06,1.03,0.6,1.03s1.46-0.46,1.79-1.03c0.33-0.57,0.06-1.03-0.6-1.03
	C32.53,30.38,31.73,30.84,31.4,31.41z M37.97,27.62c0.66,0,0.93,0.46,0.6,1.03c-0.33,0.57-1.13,1.03-1.79,1.03s-0.93-0.46-0.6-1.03
	C36.5,28.08,37.31,27.62,37.97,27.62z M31.6,27.62c0.66,0,0.93,0.46,0.6,1.03c-0.33,0.57-1.13,1.03-1.79,1.03
	c-0.66,0-0.93-0.46-0.6-1.03C30.13,28.08,30.94,27.62,31.6,27.62z M34.78,33.14c0.66,0,0.93,0.46,0.6,1.03s-1.13,1.03-1.79,1.03
	s-0.93-0.46-0.6-1.03S34.12,33.14,34.78,33.14z M28.41,33.14c0.66,0,0.93,0.46,0.6,1.03s-1.13,1.03-1.79,1.03s-0.93-0.46-0.6-1.03
	S27.75,33.14,28.41,33.14z M53.99,43.57c-0.57-0.33-1.03-0.06-1.03,0.6s0.46,1.46,1.03,1.79s1.03,0.06,1.03-0.6
	C55.02,44.71,54.56,43.9,53.99,43.57z M55.02,39c0,0.66-0.46,0.93-1.03,0.6s-1.03-1.13-1.03-1.79s0.46-0.93,1.03-0.6
	C54.56,37.53,55.02,38.34,55.02,39z M49.51,42.18c0,0.66-0.46,0.93-1.03,0.6s-1.03-1.13-1.03-1.79s0.46-0.93,1.03-0.6
	C49.04,40.72,49.51,41.52,49.51,42.18z M49.51,35.81c0,0.66-0.46,0.93-1.03,0.6s-1.03-1.13-1.03-1.79s0.46-0.93,1.03-0.6
	C49.04,34.35,49.51,35.15,49.51,35.81z M58.32,45.37c0,0.66,0.46,0.93,1.03,0.6s1.03-1.13,1.03-1.79s-0.46-0.93-1.03-0.6
	C58.78,43.9,58.32,44.71,58.32,45.37z M64.87,34.02c0.57-0.33,1.03-0.06,1.03,0.6s-0.46,1.46-1.03,1.79s-1.03,0.06-1.03-0.6
	C63.83,35.15,64.3,34.35,64.87,34.02z M58.39,28.38c-0.57,0.33-0.57,0.86,0,1.19s1.5,0.33,2.07,0s0.57-0.86,0-1.19
	S58.96,28.05,58.39,28.38z M63.22,29.97c0.57,0.33,0.57,0.86,0,1.19s-1.5,0.33-2.07,0s-0.57-0.86,0-1.19S62.65,29.64,63.22,29.97z
	 M57.7,26.79c0.57,0.33,0.57,0.86,0,1.19s-1.5,0.33-2.07,0s-0.57-0.86,0-1.19C56.21,26.46,57.13,26.46,57.7,26.79z M54.95,31.57
	c0.57,0.33,0.57,0.86,0,1.19c-0.57,0.33-1.5,0.33-2.07,0s-0.57-0.86,0-1.19C53.45,31.24,54.37,31.24,54.95,31.57z M57.7,33.16
	c0.57,0.33,0.57,0.86,0,1.19c-0.57,0.33-1.5,0.33-2.07,0s-0.57-0.86,0-1.19C56.21,32.83,57.13,32.83,57.7,33.16z M52.19,29.97
	c0.57,0.33,0.57,0.86,0,1.19s-1.5,0.33-2.07,0s-0.57-0.86,0-1.19S51.62,29.64,52.19,29.97z M82.97,37.42
	c0.48,1.49,0.39,2.79-0.28,3.91s-1.8,1.9-3.41,2.32c-1.87,0.49-3.45,0.29-4.73-0.61c-1.29-0.9-2.35-2.66-3.18-5.27l-0.25-0.82
	c-0.58-1.83-0.79-3.38-0.64-4.65s0.63-2.3,1.44-3.08c0.81-0.78,1.9-1.36,3.29-1.73c0.97-0.26,1.87-0.26,2.72-0.01
	c0.84,0.26,1.57,0.74,2.19,1.44s1.07,1.6,1.36,2.69c0.18,0.68,0.19,1.25,0.03,1.71s-0.54,0.78-1.14,0.94
	c-0.53,0.14-0.97,0.09-1.32-0.15c-0.35-0.25-0.66-0.7-0.92-1.37c-0.19-0.55-0.48-0.97-0.85-1.26c-0.38-0.3-0.84-0.37-1.38-0.23
	c-0.8,0.2-1.32,0.7-1.56,1.49c-0.24,0.79-0.17,1.9,0.2,3.31l0.17,0.65c0.36,1.37,0.82,2.33,1.38,2.88s1.22,0.75,2,0.6
	c0.51-0.11,0.89-0.38,1.15-0.82s0.37-0.96,0.33-1.55c-0.04-0.64,0.04-1.11,0.25-1.4c0.2-0.3,0.49-0.49,0.87-0.6
	c0.59-0.16,1.07-0.09,1.45,0.22C82.48,36.33,82.77,36.79,82.97,37.42z M88.6,33.31c-0.36,0-0.67,0.08-0.94,0.24
	c-0.27,0.16-0.47,0.46-0.62,0.88c-0.14,0.43-0.21,1.03-0.21,1.82l0.14,6.39c0.02,0.86,0.14,1.47,0.37,1.83s0.59,0.54,1.06,0.54
	c0.3,0,0.56-0.07,0.78-0.22c0.23-0.15,0.41-0.42,0.55-0.82s0.21-0.98,0.21-1.73l0.17-6.36c0.01-0.95-0.12-1.62-0.4-2
	C89.44,33.5,89.06,33.31,88.6,33.31z M88.5,28.73c-0.51,0-0.93,0.16-1.28,0.48s-0.52,0.77-0.52,1.36c0,0.53,0.15,0.93,0.44,1.22
	c0.3,0.29,0.72,0.41,1.27,0.37c0.49-0.04,0.92-0.2,1.28-0.48c0.36-0.28,0.55-0.7,0.55-1.25c0-0.5-0.17-0.91-0.5-1.23
	C89.41,28.89,89,28.73,88.5,28.73z M101.89,27.48l-6.44-0.76c-0.69-0.09-1.23,0-1.64,0.26c-0.4,0.27-0.63,0.69-0.68,1.26
	c-0.04,0.5,0.06,0.91,0.3,1.24c0.24,0.33,0.62,0.52,1.13,0.58l1.12,0.08c0.39,0.03,0.65,0.14,0.79,0.33
	c0.14,0.18,0.18,0.49,0.13,0.91l-1.06,9.2c-0.09,0.83-0.04,1.45,0.16,1.87c0.2,0.41,0.61,0.65,1.22,0.7
	c1.06,0.09,1.68-0.73,1.86-2.46l0.94-9.26c0.04-0.36,0.14-0.6,0.29-0.73c0.16-0.13,0.4-0.2,0.73-0.2l1.11,0.02
	c0.54,0,0.94-0.15,1.2-0.43c0.26-0.28,0.4-0.63,0.44-1.05c0.03-0.4-0.09-0.74-0.38-1.03C102.84,27.73,102.43,27.55,101.89,27.48z
	 M116.61,29.4c-0.28-0.48-0.76-0.66-1.43-0.54c-0.38,0.07-0.68,0.23-0.9,0.48c-0.21,0.25-0.39,0.65-0.53,1.2l-1.16,4.08
	c-0.1,0.41-0.2,0.68-0.28,0.83s-0.18,0.23-0.31,0.25c-0.11,0.02-0.23-0.03-0.35-0.14c-0.12-0.11-0.28-0.33-0.48-0.66l-2.05-3.16
	c-0.38-0.69-0.73-1.14-1.04-1.37c-0.31-0.22-0.68-0.3-1.11-0.22c-0.77,0.14-1.19,0.51-1.27,1.14c-0.08,0.62,0.16,1.34,0.71,2.16
	l3.08,4.36c0.2,0.29,0.39,0.56,0.57,0.82s0.35,0.5,0.51,0.74c0.19,0.26,0.33,0.52,0.45,0.78c0.11,0.26,0.22,0.65,0.33,1.16
	l0.48,2.42c0.16,0.72,0.4,1.22,0.72,1.49c0.32,0.28,0.72,0.37,1.19,0.29c0.92-0.16,1.31-0.94,1.18-2.33l-0.38-2.86
	c-0.04-0.34-0.06-0.61-0.06-0.83c0-0.21,0.02-0.43,0.06-0.64c0.04-0.22,0.11-0.49,0.21-0.81c0.09-0.29,0.17-0.57,0.25-0.83
	c0.08-0.26,0.15-0.53,0.22-0.79l1.53-5.17C116.94,30.5,116.89,29.88,116.61,29.4z"/>
</svg>
