<svg xmlns="http://www.w3.org/2000/svg" viewBox="0 0 155 40">
<path fill="#FFD554" d="M19.94,35.9c-2.16,0-4.24-0.42-6.21-1.25c-1.9-0.8-3.61-1.95-5.07-3.42c-1.47-1.47-2.62-3.17-3.42-5.07 c-0.83-1.96-1.25-4.05-1.25-6.21s0.42-4.24,1.25-6.21c0.8-1.9,1.95-3.61,3.42-5.07c1.47-1.47,3.17-2.62,5.07-3.42 c1.96-0.83,4.05-1.25,6.21-1.25s4.24,0.42,6.21,1.25c1.9,0.8,3.61,1.95,5.07,3.42c1.47,1.47,2.62,3.17,3.42,5.07 c0.83,1.96,1.25,4.05,1.25,6.21h3.99C39.89,8.93,30.96,0,19.94,0S0,8.93,0,19.94s8.93,19.94,19.94,19.94V35.9z"/>
<path fill="#FF6172" d="M28.41,28.41L28.41,28.41c-2.26,2.26-5.27,3.51-8.46,3.51s-6.2-1.24-8.46-3.51 c-2.26-2.26-3.51-5.27-3.51-8.46c0-3.2,1.24-6.2,3.51-8.46c2.26-2.26,5.27-3.51,8.46-3.51s6.2,1.24,8.46,3.51l2.82-2.82 c-2.89-2.89-6.88-4.67-11.28-4.67c-8.81,0-15.96,7.14-15.96,15.96c0,8.81,7.14,15.96,15.96,15.96c4.41,0,8.39-1.79,11.28-4.67 L28.41,28.41z"/>
<path fill="#C43197" d="M27.92,19.98c-0.01,2.12-0.84,4.11-2.34,5.61c-1.51,1.51-3.51,2.34-5.64,2.34s-4.13-0.83-5.64-2.34 s-2.34-3.51-2.34-5.64c0-2.13,0.83-4.13,2.34-5.64s3.51-2.34,5.64-2.34c0,0,0,0,0,0V7.98c-3.06,0-6.13,1.17-8.46,3.5 c-4.67,4.67-4.67,12.25,0,16.92c4.67,4.67,12.25,4.67,16.92,0c2.33-2.33,3.49-5.38,3.5-8.43H27.92z"/>
<path fill="#43D5FC" d="M22.76,22.76c-0.72,0.72-1.72,1.17-2.82,1.17c-2.2,0-3.99-1.79-3.99-3.99s1.79-3.99,3.99-3.99 c1.1,0,2.1,0.45,2.82,1.17l2.82-2.82c-1.44-1.44-3.44-2.34-5.64-2.34c-4.41,0-7.98,3.57-7.98,7.98s3.57,7.98,7.98,7.98 c2.2,0,4.2-0.89,5.64-2.34L22.76,22.76z"/>
<path id="c" fill="#43D5FC" d="M49.36,28.87c-1.09,0-2.01-0.34-2.85-1.09c-0.84-0.67-1.42-1.68-1.84-2.93
		C44.25,23.59,44,22.09,44,20.33c0-2.6,0.5-4.61,1.42-6.12c0.92-1.51,2.26-2.35,3.94-2.35c1.01,0,1.93,0.25,2.68,0.75l0.34,0.17
		l-0.84,1.59l-0.34-0.25c-0.5-0.34-1.17-0.5-1.84-0.5c-1.09,0-1.84,0.59-2.51,1.68c-0.67,1.17-1.01,2.85-1.01,5.03
		c0,1.42,0.17,2.6,0.5,3.69c0.34,1.01,0.75,1.76,1.26,2.26c0.5,0.5,1.17,0.75,1.84,0.75c0.75,0,1.42-0.17,1.93-0.42l0.5-0.25v1.76
		l-0.17,0.08C51.12,28.62,50.37,28.87,49.36,28.87z M57.83,28.87c-1.59,0-2.85-0.75-3.69-2.35c-0.75-1.42-1.17-3.52-1.17-6.2
		c0-2.77,0.42-4.86,1.17-6.2c0.84-1.42,2.09-2.18,3.77-2.18c1.59,0,2.85,0.75,3.69,2.26c0.84,1.42,1.17,3.52,1.17,6.12
		c0,2.68-0.42,4.78-1.17,6.2C60.68,28.04,59.42,28.87,57.83,28.87z M57.83,13.54c-1.01,0-1.76,0.5-2.26,1.59
		c-0.59,1.17-0.84,2.85-0.84,5.11s0.25,4.02,0.84,5.11c0.5,1.09,1.26,1.59,2.26,1.59c1.01,0,1.68-0.5,2.26-1.59s0.84-2.85,0.84-5.11
		s-0.25-4.02-0.84-5.11S58.83,13.54,57.83,13.54z M70.73,28.79h-6.62V12.03h1.76v15h4.78v1.76H70.73z M75.42,28.87
		c-1.59,0-2.85-0.75-3.69-2.35c-0.75-1.42-1.17-3.52-1.17-6.2c0-2.77,0.42-4.86,1.17-6.2c0.84-1.42,2.09-2.18,3.77-2.18
		c1.59,0,2.85,0.75,3.69,2.26c0.84,1.42,1.17,3.52,1.17,6.12c0,2.68-0.42,4.78-1.17,6.2C78.27,28.04,77.01,28.87,75.42,28.87z
		 M75.26,13.54c-1.01,0-1.76,0.5-2.26,1.59c-0.59,1.17-0.84,2.85-0.84,5.11s0.25,4.02,0.84,5.11c0.5,1.09,1.26,1.59,2.26,1.59
		c1.01,0,1.68-0.5,2.26-1.59s0.84-2.85,0.84-5.11s-0.25-4.02-0.84-5.11C77.01,14.04,76.26,13.54,75.26,13.54z M89.92,28.79h-2.01
		l-2.93-7.12h-1.42v7.12h-1.76V12.03h2.51c1.59,0,2.85,0.42,3.6,1.17c0.75,0.75,1.17,2.01,1.17,3.52c0,1.17-0.25,2.09-0.59,2.85
		c-0.34,0.67-1.01,1.26-1.76,1.59L89.92,28.79z M83.55,19.91h1.09c0.84,0,1.51-0.25,1.93-0.75c0.42-0.5,0.67-1.34,0.67-2.35
		c0-1.09-0.25-1.84-0.67-2.26c-0.42-0.42-1.17-0.67-2.26-0.67h-0.84v6.03H83.55z M94.36,28.87c-1.34,0-2.35-0.17-3.18-0.59
		l-0.25-0.08v-2.01l0.59,0.34c0.34,0.17,0.75,0.34,1.26,0.42c0.5,0.08,1.01,0.17,1.59,0.17c0.67,0,1.26-0.25,1.68-0.75
		c0.5-0.59,0.67-1.26,0.67-2.09c0-0.75-0.17-1.42-0.5-1.84C95.87,22,95.2,21.5,94.28,21c-0.84-0.42-1.51-0.84-1.93-1.26
		c-0.42-0.42-0.75-0.92-1.01-1.51c-0.17-0.59-0.34-1.17-0.34-1.93c0-0.84,0.17-1.59,0.5-2.26c0.34-0.67,0.84-1.17,1.42-1.59
		c1.17-0.67,2.68-0.67,3.77-0.34c0.5,0.17,0.92,0.34,1.26,0.5l0.25,0.17l-0.67,1.68l-0.34-0.17c-0.75-0.42-1.51-0.59-2.26-0.59
		c-0.67,0-1.17,0.25-1.59,0.67c-0.42,0.42-0.67,1.09-0.67,1.84c0,0.84,0.17,1.42,0.42,1.84c0.34,0.42,1.01,0.92,1.93,1.42
		c1.09,0.5,1.93,1.17,2.43,1.93c0.5,0.75,0.84,1.68,0.84,2.77c0,1.34-0.42,2.51-1.17,3.35C96.54,28.37,95.53,28.87,94.36,28.87z
		 M107.52,28.79h-4.02V12.03h3.35c1.34,0,2.35,0.34,3.1,1.09c0.75,0.67,1.09,1.76,1.09,3.1c0,1.84-0.59,3.1-1.68,3.69
		c0.5,0.25,0.92,0.59,1.26,1.01c0.5,0.67,0.75,1.59,0.75,2.77c0,1.51-0.34,2.93-1.01,3.77C109.78,28.37,108.77,28.79,107.52,28.79z
		 M105.34,27.03h2.01c0.92,0,2.26-0.59,2.26-3.44c0-0.92-0.25-1.68-0.67-2.18c-0.42-0.5-1.09-0.75-1.84-0.75h-1.76
		C105.34,20.66,105.34,27.03,105.34,27.03z M105.34,18.99h1.59c0.84,0,1.51-0.25,1.84-0.67c0.34-0.5,0.59-1.26,0.59-2.26
		c0-0.75-0.17-1.42-0.59-1.76c-0.42-0.42-1.01-0.59-1.76-0.59h-1.59v5.28H105.34z M122.18,28.79h-1.84l-1.42-5.95h-3.18l-1.34,5.95
		h-1.84l3.94-16.76h1.68L122.18,28.79z M116.15,20.91h2.43l-1.26-5.2L116.15,20.91z M121.17,12.03v1.76h3.35v15h1.76v-15h6.54v15
		h1.76v-15h3.1v-1.76H121.17z M146.06,28.79h-6.54V12.03h1.76v15h4.78V28.79z M154.52,28.79h-6.62V12.03h6.62v1.76h-4.78v4.94h4.78
		v1.76h-4.78v6.45h4.78V28.79z"/>
</svg>
