<svg xmlns="http://www.w3.org/2000/svg" viewBox="0 0 134 56" enable-background="new 0 0 134 56" xml:space="preserve">
<path fill="#03A9F4" d="M15.5,15.8c0.4,0,0.9,0,1.3,0.1c2.5,0.4,4.6,1.6,6.1,3.6c1.4,1.9,2,4.2,1.6,6.5c-0.7,4.3-4.6,7.6-9.1,7.6 c-0.4,0-0.9,0-1.3-0.1c-4.8-0.7-8.2-4.9-7.8-9.5l0.1-1.1l-0.9-0.5c-0.9-0.5-1.6-1.1-2.1-1.8c0.7,0.3,1.5,0.6,2.4,0.7l1.1,0.2l0.6-1 C9,17.6,12.1,15.8,15.5,15.8 M15.5,14.1c-4,0-7.6,2.2-9.5,5.5c-2.8-0.4-4.9-2.4-5.5-4.9c-0.5,4.4,0.9,7.2,4.2,9.2 c-0.5,5.5,3.5,10.6,9.2,11.4c0.5,0.1,1.1,0.1,1.6,0.1c5.3,0,10-3.8,10.8-9.1c0.9-5.8-3.2-11.2-9.2-12C16.5,14.1,16,14.1,15.5,14.1 L15.5,14.1z"/><path fill="#54D005" d="M21.5,1.6c0.3,0,0.5,0,0.8,0.1c1.5,0.2,2.7,0.9,3.6,2.1c0.8,1.1,1.1,2.4,0.9,3.7c-0.1,0.5-0.2,1-0.5,1.5 l-0.3,0.7l0.3,0.7c0,0,0,0,0,0L25.8,10l-1,0.8c-1,0.7-2.1,1.1-3.3,1.1c-0.3,0-0.5,0-0.8-0.1c-1.5-0.2-2.7-0.9-3.6-2.1 c-0.8-1.1-1.1-2.4-0.9-3.7C16.5,3.5,18.8,1.6,21.5,1.6 M21.5,0c-3.4,0-6.4,2.4-6.9,5.8c-0.6,3.7,2.1,7.1,5.9,7.7 c0.3,0,0.7,0.1,1,0.1c1.6,0,3.1-0.5,4.3-1.4c0.8,0.7,1.7,0.9,2.6,0.9c1,0,1.9-0.3,2.8-0.8c0.3-0.2,0.5-0.3,0.7-0.5 c-0.3,0.1-0.6,0.1-0.9,0.1c-1.3,0-2.7-0.8-3.2-2c0.3-0.6,0.5-1.3,0.6-2c0.6-3.7-2.1-7.1-5.9-7.7C22.2,0,21.8,0,21.5,0L21.5,0z"/><path fill="#424242" d="M22.4,45c0-5.9,4.8-10.7,10.8-10.7c4,0,6.6,1.8,8.5,3.8l-1.4,1.4c-1.8-1.8-3.9-3.4-7.1-3.4 c-4.7,0-8.9,4-8.9,8.9c0,4.9,4.2,8.9,9,8.9c3,0,5.3-1.6,7-3.5l1.5,1.3c-2.2,2.4-4.8,4.1-8.7,4.1C27.2,55.8,22.4,50.9,22.4,45z"/><path fill="#424242" d="M47,35h2v20h-2V35z"/><path fill="#424242" d="M57,50.1V28h2v7.2h7V37h-7v12.9c0,2.9,1.7,4,4.1,4c1,0,1.8-0.2,2.9-0.7V55c-1,0.5-2,0.7-3.3,0.7 C59.6,55.7,57,54,57,50.1z"/><path fill="#424242" d="M70.3,49.2c0-4.3,3.7-6.7,9-6.7c2.9,0,4.8,0.4,6.8,0.9v-0.9c0-4.1-2.5-6.3-6.7-6.3c-2.5,0-4.5,0.7-6.4,1.6 l-0.7-1.7c2.2-1,4.5-1.8,7.3-1.8c2.8,0,5,0.8,6.5,2.2c1.4,1.4,2.1,3.3,2.1,5.8V55H86v-3.2c-1.4,2-3.9,3.9-7.8,3.9 C74.4,55.7,70.3,53.5,70.3,49.2z M86.1,47.5v-2.3c-1.7-0.4-4-0.9-6.9-0.9c-4.3,0-6.7,1.9-6.7,4.9c0,3,2.8,4.7,5.9,4.7 C82.5,53.8,86.1,51.3,86.1,47.5z"/><path fill="#424242" d="M95,50.1V28h2v7.2h7V37h-7v12.9c0,2.9,1.7,4,4.1,4c1,0,1.8-0.3,2.9-0.8v1.8c-1,0.5-2,0.8-3.3,0.8 C97.6,55.7,95,54,95,50.1z"/>
<path fill="#424242" d="M111,35h2v20h-2V35z"/><path fill="#424242" d="M127,43.9c-2.9-0.8-5.7-1.7-5.7-4c0-2.1,1.8-3.6,4.6-3.6c2.1,0,4.3,0.8,6.1,1.9l1-1.7c-2-1.3-4.7-2.1-7-2.1 c-4,0-6.7,2.4-6.7,5.7c0,3.7,3.7,4.7,7,5.7c2.8,0.8,5.4,1.7,5.4,4.1c0,2.4-2.2,4-4.9,4c-2.6,0-5.1-1-7.3-2.7l-1.2,1.6 c2.2,1.8,5.4,3,8.4,3c3.9,0,7.1-2.3,7.1-6C133.7,46,130.3,44.8,127,43.9z"/>
</svg>
