<svg xmlns="http://www.w3.org/2000/svg" viewBox="0 0 70 73" enable-background="new 0 0 70 73" xml:space="preserve">
<path fill="#007DBF" d="M66,0c0,1.4-1.1,2.5-2.5,2.5S61,1.4,61,0h-4.5c0,1.4-1.1,2.5-2.5,2.5S51.5,1.4,51.5,0H47
	c0,1.4-1.1,2.5-2.5,2.5S42,1.4,42,0h-4.5c0,1.4-1.1,2.5-2.5,2.5S32.5,1.4,32.5,0H28c0,1.4-1.1,2.5-2.5,2.5S23,1.4,23,0h-4.5
	c0,1.4-1.1,2.5-2.5,2.5S13.5,1.4,13.5,0H9c0,1.4-1.1,2.5-2.5,2.5S4,1.4,4,0H0v73h70V0H66z"/>
<path fill="#FFFFFF" d="M8,48.9h4.8c4.6,0,7.2-2.7,7.2-6.4c0-3.7-2.6-6.3-7.2-6.3H8V48.9z M11.5,39.3H13c2.1,0,3.5,1.2,3.5,3.3
	c0,2.1-1.4,3.3-3.5,3.3h-1.4V39.3z"/>
<path fill="#FFFFFF" d="M29.2,36.1h-3.4l-5.4,12.8h3.7l0.9-2.3h4.9l0.9,2.3h3.8L29.2,36.1z M26,43.9l1.4-3.6l1.4,3.6H26z"/>
<polygon fill="#FFFFFF" points="32.7,36.2 37.6,44.2 37.6,48.9 41.1,48.9 41.1,44.1 45.9,36.2 42,36.2 39.4,40.8 36.7,36.2 "/>
<path fill="#FFFFFF" d="M51.6,44.1c1.7,0.4,2.1,0.7,2.1,1.2c0,0.6-0.5,0.9-1.5,0.9c-1.5,0-2.9-0.5-4.1-1.5l-2,2.3
	c1.6,1.4,3.7,2.1,6,2.1c3.1,0,5.1-1.5,5.1-4.1c0-2.4-1.8-3.4-4.7-4c-1.8-0.4-2.2-0.7-2.2-1.2c0-0.5,0.4-0.9,1.3-0.9
	c1.1,0,2.4,0.4,3.6,1.3l1.8-2.5c-1.4-1.1-3.1-1.7-5.2-1.7c-3.1,0-4.9,1.7-4.9,4.1C46.8,42.7,48.9,43.5,51.6,44.1z"/>
<path fill="#FFFFFF" d="M13.4,52.1H8v12.7h3.5v-3.6h1.7c3.2,0,5.5-1.6,5.5-4.6C18.7,53.7,16.7,52.1,13.4,52.1z M13.2,58.4h-1.7v-3.4
	h1.7c1.3,0,2,0.6,2,1.7C15.2,57.8,14.4,58.4,13.2,58.4z"/>
<polygon fill="#FFFFFF" points="23.5,59.8 29.6,59.8 29.6,57 23.5,57 23.5,55.1 30.2,55.1 30.2,52.1 20,52.1 20,64.8 30.3,64.8 
	30.3,61.8 23.5,61.8 "/>
<path fill="#FFFFFF" d="M37,52.1h-4.9v12.7h4.8c4.6,0,7.2-2.7,7.2-6.4C44.2,54.7,41.6,52.1,37,52.1z M37.1,61.7h-1.4v-6.5h1.4
	c2.1,0,3.5,1.2,3.5,3.3C40.6,60.5,39.2,61.7,37.1,61.7z"/>
<rect x="45.4" y="52.1" fill="#FFFFFF" width="3.5" height="12.7"/>
<path fill="#FFFFFF" d="M55.2,52l-5.4,12.8h3.7l0.9-2.3h4.9l0.9,2.3H64L58.6,52H55.2z M55.4,59.8l1.4-3.6l1.4,3.6H55.4z"/>
<path fill="#FFFFFF" d="M61.5,45c1.1,0,2-0.9,2-2c0-1.1-0.9-2-2-2s-2,0.9-2,2C59.5,44.1,60.4,45,61.5,45z"/>
</svg>
