<svg xmlns="http://www.w3.org/2000/svg" xmlns:xlink="http://www.w3.org/1999/xlink" viewBox="0 0 581.9 212.2"><style type="text/css">.st0{fill:#F78913;}.st1{fill:#DB2E4B;}.st2{fill:#F0C013;}.st3{fill:#1FB892;}.st4{fill:#116982;}</style>
<path id="O" class="st0" d="M379,4.7c-14.5-6.3-32.5-6.3-47,0c-7.4,3.2-13.8,7.5-19.3,12.9c-1,1-1.8,2-2.7,3v68.1 c0,3.9-0.3,7.3-1,10.4c1.2,1.4,2.4,2.8,3.7,4c5.5,5.5,11.9,9.8,19.3,12.9c14.5,6.3,32.5,6.3,47,0c5.7-2.4,10.8-5.6,15.4-9.4V14.2 C389.8,10.3,384.7,7.2,379,4.7z M355.3,84.6c-13.3,0-24.1-10.8-24.1-24.1s10.8-24.1,24.1-24.1s24.1,10.8,24.1,24.1 S368.6,84.6,355.3,84.6z M0,185.9h168.6v3.8H0V185.9z"/>
<path id="J_1_" class="st1" d="M299.9,83.9c2.4,5.6,5.5,10.7,9.3,15.2c-1.1,5.4-3.2,9.5-6.4,12.2c-4.9,4.4-12.7,6.6-23.4,6.6h-4.6 V2.8h35.3v17.9c-4.2,4.8-7.6,10.2-10.2,16.3c-3.2,7.4-4.7,15.2-4.7,23.5S296.7,76.5,299.9,83.9z"/>
<path id="H_1_" class="st2" d="M252.9,90.3v27.6h-12.3V75.3H220v42.6h-13.4l-23.3-61.5V2.8H220V42h20.5V2.8h34.3v79.6 c0,2.5-0.6,4.5-1.9,5.9c-1.3,1.4-3.7,2.1-7.4,2.1H252.9z"/>
<path id="AG" class="st3" d="M162.9,2.8h-27.6l-14.6,38.4v76.7h7.2l3.8-10.4h34.9l3.8,10.4h12.9V56.4L162.9,2.8z M141.3,82.2 l7.8-20.2l7.8,20.2H141.3z M581.9,51.1v38.3c-2.6,4.7-5.8,9-9.5,12.9c-16.5,17.9-44.7,23.5-67,13.9c-4.7-2-9-4.5-13-7.5V11.5 c3.5-2.6,7.3-4.9,11.5-6.7c15.7-7.1,37.2-5.9,51.9,1.5c3.8,1.8,7,3.9,9.5,6L544.4,42c-2.1-1.8-4.7-3.3-7.8-4.2 c-3.1-1-6.2-1.5-9.2-1.5c-3.3,0-6.4,0.6-9.2,1.8c-5.6,2.5-9.7,6.9-11.9,12.7c-1.2,3-1.7,6.2-1.7,9.7c0,3.5,0.6,6.7,1.9,9.7 c2.5,5.9,7,10.3,12.9,12.7c2.9,1.2,6.1,1.8,9.4,1.8c3.9,0,7.5-0.8,10.7-2.5c3.2-1.7,6-3.9,8.3-6.8h-10.4V51.1H581.9z M409.2,185.9 h172.7v3.8H409.2V185.9z"/>
<path id="MN" class="st4" d="M120.7,41.2l-29.1,76.7h-7.7V76.5L60.4,111L36.8,76.5v41.4H0V2.8h30.4l30,44.2L90.3,2.8h30.4V41.2z M473.2,84.3c-3.2-7.4-4.7-15.3-4.7-23.8c0-8.3,1.5-16.1,4.5-23.5c3-7.4,7.1-13.8,12.3-19.3c2.2-2.3,4.6-4.3,7.2-6.2V2.8h-36.1v44.4 L424.6,2.8h-30.2v11.4c1.3,1.1,2.6,2.3,3.9,3.5c5.5,5.5,9.8,11.9,12.9,19.3c3.2,7.4,4.7,15.2,4.7,23.5s-1.6,16.1-4.7,23.5 c-3.2,7.4-7.5,13.8-12.9,19.3c-1.2,1.2-2.5,2.4-3.9,3.5v11.2h36.1V73.7l31.6,44.2h30.4v-9.2c-2.2-1.6-4.3-3.4-6.3-5.3 C480.7,98,476.4,91.6,473.2,84.3z"/>
<path id="intersects" d="M120.7,41.2v76.7H91.6L120.7,41.2z M183.2,117.9h23.3l-23.3-61.5V117.9z M274.8,82.4c0,2.5-0.6,4.5-1.9,5.9 c-1.3,1.4-3.7,2.1-7.4,2.1h-12.6v27.6h21.9L274.8,82.4z M310.1,20.7c-4.2,4.8-7.6,10.2-10.2,16.3c-3.2,7.4-4.7,15.2-4.7,23.5 s1.6,16.1,4.7,23.5c2.4,5.6,5.5,10.7,9.3,15.2c0.6-3,1-6.5,1-10.4V20.7z M411.2,83.9c3.2-7.4,4.7-15.2,4.7-23.5s-1.6-16.1-4.7-23.5 c-3.2-7.4-7.5-13.8-12.9-19.3c-1.2-1.2-2.5-2.4-3.9-3.5v92.5c1.3-1.1,2.6-2.3,3.9-3.5C403.7,97.7,408.1,91.3,411.2,83.9z M485.3,17.7C480.1,23.2,476,29.6,473,37c-3,7.4-4.5,15.2-4.5,23.5c0,8.5,1.6,16.5,4.7,23.8c3.2,7.4,7.5,13.8,12.9,19.2 c2,1.9,4.1,3.7,6.3,5.3V11.5C489.9,13.4,487.5,15.4,485.3,17.7z M182,188c0-13.2,9.9-24.2,23.7-24.2c8.5,0,13.4,3.1,18.1,7.6 l-3.5,3.7c-3.9-3.7-8.4-6.4-14.7-6.4c-10.4,0-18.1,8.4-18.1,19.3c0,10.8,7.8,19.3,18.1,19.3c6.4,0,10.6-2.5,15.1-6.8l3.5,3.7 c-4.9,4.9-10.2,8-18.7,8C192,212.2,182,201.6,182,188z M232,164.6h5.3v20.8h27v-20.8h5.3v46.8h-5.3v-21.1h-27v21.1H232V164.6z M281.9,164.6h33.8v4.8h-28.6v16h25.5v4.8h-25.5v16.4H316v4.8h-34.2V164.6z M322,204.6l3.3-3.9c4.9,4.4,9.6,6.6,16,6.6 c6.3,0,10.4-3.3,10.4-8.1c0-4.3-2.3-6.8-12.2-8.9c-10.8-2.3-15.7-5.8-15.7-13.6c0-7.4,6.5-12.8,15.4-12.8c6.8,0,11.7,1.9,16.5,5.8 l-3.1,4.1c-4.3-3.5-8.7-5.1-13.5-5.1c-6.1,0-10,3.3-10,7.7c0,4.4,2.4,6.9,12.7,9.1c10.4,2.3,15.2,6.1,15.2,13.4 c0,8-6.7,13.2-16,13.2C333.7,212.1,327.6,209.6,322,204.6z M378.9,169.5h-15.7v-4.9h36.8v4.9h-15.7v41.9h-5.3V169.5z"/></svg>