<svg xmlns="http://www.w3.org/2000/svg" viewBox="0 0 110 40">
<path fill="#F30000" d="M72.34,39.21c-0.28-0.27-0.69-0.68-0.95-0.91c-0.15-0.42-0.67-0.69-0.83-1.09c0.63-0.26,1.18-0.77,1.4-0.96
	c-0.17-0.36,0.25-0.64,0.47-0.94c-0.12-0.48,0.45-0.87,0.13-1.39c0.25-0.84-0.19-1.43-0.42-2.17c-0.11-0.2-0.31-0.4-0.3-0.62
	c-0.9-0.97-1.96-1.53-3.05-1.54l-0.26-0.16c-1.38,0-2.46,0.81-3.35,1.65c-0.66,1.12-0.98,2.63-0.71,3.86
	c0.3,0.24,0.2,0.62,0.61,0.84c0.88,1.62,2.7,1.85,4.43,1.84c0.62,0.76,1.07,1.63,1.74,2.35l0.07,0.01
	C71.89,40.09,72.12,39.53,72.34,39.21z M65.99,31.82c0.45-0.42,0.85-1.02,1.51-1.01l-0.05,0.01c0.04,0.06,0.09,0.15,0.24,0.22
	l0.13,0.02c0.35,0.01,0.44-0.27,0.67-0.4l-0.01-0.05c0.01,0,0.02-0.01,0.03-0.02c0.16,0.01,0.2,0.11,0.28,0.19
	c1.03-0.31,1.68,0.68,2.24,1.35c0.52,1.09,0.68,3.45-0.9,3.98c-0.31-0.98-0.89-2.82-2.45-2.52c-0.85,0.8,0.67,0.94,0.72,1.56
	c0.33,0.2,0.45,0.9,0.6,1.32c-1.82,0.29-3.26-1.03-3.35-2.44c0.15-0.25,0.14-0.56,0.05-0.79L65.99,31.82z M79.38,31.83l-0.25-0.34
	c-0.56-0.43-0.78,0.27-1.11,0.5c-0.24,1.56,1.12,4.48-0.98,5.19c-2.26-0.05-1.36-2.74-1.59-4.19c-0.09-0.32,0.36-0.68-0.4-0.9
	c-0.26-0.13-0.63-0.11-0.86,0.05c-0.18,1.29,0.17,4.04,0.43,5.2c0.44,0.59,1.3,0.94,2.29,0.94C80.38,38.19,79.28,33.87,79.38,31.83z
	 M82.29,39.12c0.64-0.41,1.84-0.52,2.56-0.81c0.6,0.05,1.17-0.29,1.39-0.77c-0.2-0.22-0.25-0.46-0.71-0.49
	c-1.11,0.16-1.95,0.47-2.97,0.68c-0.03-0.06-0.08-0.17-0.08-0.2l0.02-0.05c-0.1-0.46-0.11-1.37-0.09-1.92
	c0.67,0.03,1.21-0.19,1.87-0.29c0.47-0.18,1.18-0.08,1.12-0.89c-0.17-0.27-0.55-0.37-0.88-0.31c-0.51,0.42-1.5,0.21-2.16,0.38
	c0.13-0.49-0.24-1.26-0.03-1.73c0.9-0.27,1.92-0.07,2.82-0.43c0.2-0.15,0.59-0.3,0.4-0.72l-0.1-0.18c-1.23-0.24-2.54,0.36-3.75,0.09
	c-0.93,0.26-0.67,1.45-0.58,2.1c-0.31,0.46,0.31,0.98-0.21,1.3c0.12,0.2,0.1,0.41,0.3,0.59c0.15,0.97-0.03,2.22,0.14,3.22
	c0.17,0.3,0.43,0.47,0.71,0.47C82.12,39.17,82.18,39.16,82.29,39.12z M90.28,38.13c1.14-0.01,2.4-1.51,2.28-2.54
	c0.31-0.76-0.51-1.24-0.88-1.82c-0.57-0.62-1.5-0.51-2.29-0.52c-4.03-0.27,1.91-5.28,2.1-1.64c0.25,0.29,0.58,0.23,0.9,0.3
	c0.32-0.26,0.32-0.61,0.44-0.93c-2.18-4.72-9.47,1.61-4.15,3.34l0.08-0.12c0.11,0.08,0.36,0.16,0.52,0.06
	c0.24,0.07,0.37-0.04,0.59-0.06l0.06,0.02c1.77-0.1,1.88,2.68,0.17,2.81c-0.95-0.02-1.62-0.12-1.46-1.33
	c-0.41-0.6-1.18-0.09-1.41,0.4C87.44,37.44,88.81,38.13,90.28,38.13L90.28,38.13z M97.87,38.84c0.15-0.01,0.39-0.04,0.44-0.39
	c0.46-0.38,0.13-0.96,0.06-1.41c-0.04-1.56-0.31-3.11-0.14-4.6l-0.03-0.11c0.08-0.33,0.03-0.73,0.27-0.98c1.07-0.11,2.1,0.21,3.16,0
	c0.18-0.09,0.38-0.39,0.33-0.63l0.09-0.08l-0.45-0.28c-2.54-0.1-4.9,0.13-7.45,0.05c-0.43,0.17-0.5,0.52-0.58,0.72
	c0.61,0.83,1.68,0.02,2.43,0.49c0.23-0.29,0.7,0.03,0.95-0.16l0.06-0.18l0.05,0.13c0,1.1,0,2.77,0.11,3.79
	c-0.21,0.69,0.12,1.59-0.02,2.3c0.33,0.41-0.06,1.1,0.68,1.33L97.87,38.84z M33.37,10.51c0.67-0.02,1.34,0.02,2.01,0.13
	c0.29,0.05,0.66-0.1,0.89-0.28c0.23-0.19,0.43-0.54,0.44-0.85c0.01-0.31-0.06-0.65-0.28-0.89c-0.08-0.08-0.16-0.15-0.24-0.23
	C36,8.27,35.8,8.2,35.58,8.18C34.55,8.01,33.51,8,32.48,8.12c-0.1,0.01-0.2,0.05-0.3,0.1c-0.1-0.67-0.23-1.28-0.3-1.77
	c-0.3-0.73-0.68-1.34-1.11-1.83c0.21-0.08,0.39-0.21,0.53-0.39c0.48-0.6,0.96-1.2,1.43-1.8c0.2-0.25,0.29-0.62,0.24-0.93
	c-0.04-0.29-0.22-0.63-0.47-0.8c-0.27-0.18-0.6-0.3-0.93-0.24c-0.32,0.06-0.6,0.21-0.8,0.47c-0.48,0.6-0.96,1.2-1.43,1.8
	c-0.14,0.17-0.22,0.41-0.24,0.64c-1.23-0.56-2.61-0.58-3.92-0.2c-0.03-0.23-0.11-0.45-0.27-0.63c-0.6-0.66-1.16-1.36-1.69-2.09
	C23.06,0.2,22.69,0.03,22.39,0c-0.29-0.03-0.66,0.08-0.89,0.28c-0.24,0.22-0.43,0.52-0.44,0.85s0.08,0.62,0.28,0.89
	c0.52,0.73,1.09,1.42,1.68,2.09c0.02,0.02,0.04,0.04,0.06,0.06c-1.18,0.81-2.11,1.95-2.53,3.24c-0.87-0.15-1.74-0.29-2.62-0.44
	c-0.29-0.05-0.67,0.1-0.89,0.28c-0.23,0.19-0.43,0.54-0.44,0.85c-0.01,0.31,0.06,0.65,0.28,0.89c0.08,0.08,0.16,0.15,0.24,0.23
	c0.18,0.13,0.38,0.2,0.61,0.22c0.9,0.15,1.8,0.3,2.69,0.46c0.17,0.78,0.54,1.58,1.17,2.36c0.18,0.31,0.39,0.59,0.63,0.85
	c-0.07,0.06-0.13,0.13-0.19,0.21c-0.28,0.4-0.56,0.79-0.84,1.19c-0.17,0.24-0.33,0.47-0.44,0.74c-0.09,0.21-0.11,0.43-0.1,0.65
	c0.01,0.18,0.02,0.21,0.07,0.38c0.06,0.19,0.14,0.32,0.25,0.49c0.17,0.25,0.56,0.42,0.85,0.44c0.29,0.02,0.66-0.08,0.89-0.28
	c0.24-0.22,0.43-0.51,0.44-0.85c-0.01-0.11,0.14-0.28,0.32-0.53c0.19-0.28,0.39-0.55,0.58-0.83c0.05-0.07,0.09-0.15,0.13-0.24
	c1.17,0.52,2.5,0.68,3.67,0.41c0.01,0.01,0.01,0.03,0.01,0.04c0.3,0.83,0.62,1.66,0.98,2.46c0.13,0.29,0.41,0.54,0.71,0.65
	c0.28,0.1,0.66,0.1,0.93-0.04c0.29-0.15,0.55-0.39,0.65-0.71c0.09-0.31,0.09-0.63-0.04-0.93c-0.36-0.81-0.69-1.63-0.98-2.46
	c0-0.01-0.01-0.02-0.02-0.03c0.24-0.18,0.45-0.41,0.55-0.75l-0.03-0.02c1.21-0.34,1.63-1.39,1.71-2.6c0.18,0.06,0.38,0.08,0.59,0.05
	C33.06,10.53,33.21,10.52,33.37,10.51z M24.49,12.34c-0.31-0.22-0.58-0.51-0.77-0.9c-0.44-0.93-1.08-1.58-1.14-2.67
	c0.12-0.69,0.36-1.41,0.8-2.04c0.44-0.63,1.06-1.07,1.8-1.23c0.64-0.33,1.4-0.52,2.11-0.34c0.47,0.22,0.89,0.52,1.29,0.9
	c1.18,1.14,1.99,2.8,1.45,4.6c-0.27,0.9-1.19,1.92-1.97,2.31C26.84,13.06,25.5,13.05,24.49,12.34z M27.61,9.31
	c-0.18,0.63-0.78,1.11-1.72,0.77c-1.17-0.36-1.08-2.19,0.17-2.37C27.33,7.28,27.75,8.46,27.61,9.31z"/>
<path fill="#000000" d="M19.49,38.99c-0.58,0.01-1.16-0.29-1.52-0.8c-0.29-0.42-0.38-0.92-0.23-1.38c0.36-1.01,0.31-4.19,0.01-6.54
	c-0.29-2.29-0.56-4.46-0.29-5.54l-0.22-0.26c-0.76,0.69-1.46,1.37-2.2,2.08c-0.41,0.39-0.82,0.79-1.26,1.21
	c-0.69,1.51-1.71,2.69-2.99,3.46l-0.07,0.04l-0.08-0.04c-0.41-0.24-0.74-0.55-1.03-0.83c-0.3-0.29-0.59-0.57-0.91-0.7l-0.09-0.04
	l-0.01-0.1c-0.16-1.72-1.26-3.08-2.42-4.51c-0.32-0.4-0.65-0.8-0.96-1.22c-0.29,0.43-0.47,0.95-0.64,1.46
	c-0.08,0.24-0.16,0.47-0.25,0.7c-0.14,0.2-0.21,0.86-0.27,1.46c-0.11,1.12-0.23,2.38-0.78,2.71c-0.06,0.63-0.23,1.14-0.37,1.58
	c-0.21,0.63,0.14,2.49,0.37,3.03l0.05,0.11l-0.08,0.08C3,35.19,2.94,35.76,2.88,36.31C2.8,37.1,2.71,38,1.99,38.14
	c-0.15,0.02-0.28,0.04-0.41,0.04c-0.52,0.02-0.92-0.16-1.16-0.52c-0.87-1.27-0.28-5.93,0.79-9.13c0.69-2.08,1.34-4.05,1.3-5.07
	l-0.17-0.28l0.03-0.08c0.29-0.78,0.6-1.82,0.39-3.06l-0.01-0.07l0.04-0.06c0.46-0.7,0.97-1.06,1.52-1.08
	c1.48-0.04,2.91,2.37,4.29,4.7c0.82,1.39,1.61,2.7,2.29,3.3l6.4-7.14l0.04-0.01c0.11-0.03,0.22-0.05,0.33-0.06
	c0.55-0.02,0.96,0.36,1.35,0.72c0.19,0.18,0.37,0.35,0.57,0.47l0.07,0.04l0.01,0.08c0.06,0.67,0.14,1.47,0.23,2.38
	c0.47,4.79,0.92,12.76,0.6,15.23l-0.01,0.07l-0.06,0.04C20.13,38.87,19.82,38.98,19.49,38.99z M27.38,39.03
	c0.61-0.75,0.2-2.73,0-3.71l-0.04-0.22c0.41-1.34,0.3-2.87,0.19-4.35c-0.08-1.07-0.16-2.17-0.04-3.23c-0.3-1.14-0.35-2.37-0.39-3.55
	c-0.02-0.49-0.04-0.98-0.08-1.46l0.16-0.23l-0.04-0.09c-0.13-0.26-0.1-0.62-0.06-0.98c0.02-0.2,0.04-0.41,0.02-0.68
	c-0.27-0.62-0.78-0.96-1.43-0.96c-0.72,0-1.49,0.44-1.87,1.06l-0.02,0.04l0,0.05c0.06,1.3,0.22,2.59,0.37,3.83
	c0.3,2.4,0.61,4.89,0.17,7.58c0.03,0.13,0.05,0.25,0.07,0.37c0.11,0.53,0.2,0.96,0,1.53l-0.02,0.07l0.04,0.06
	c0.45,0.68,0.32,1.36,0.18,2.08c-0.08,0.43-0.02,1.53,0.03,1.97c0.03,0.49,0.19,0.88,0.5,1.23l0.04,0.04l0.05,0.01
	c0.27,0.05,0.53,0.07,0.76,0.07C26.61,39.58,27.08,39.39,27.38,39.03z M34.53,38.09c0.08-0.08,0.16-0.15,0.24-0.22l0.04-0.03
	l0.01-0.05c0.42-2.43-0.08-5.97-0.58-8.49c-0.35-1.78-0.72-3.62-0.74-5.37c0.78,0.35,1.47,1.09,2.14,1.8
	c0.39,0.41,0.76,0.81,1.14,1.13c0.1,0.31,0.34,0.54,0.58,0.75c0.26,0.24,0.48,0.44,0.48,0.72v0.07l0.06,0.04
	c1.18,1.91,2.01,3.38,2.74,5.27c0.38,0.99,1.4,2.95,1.83,3.67l0.03,0.06l0.07,0.01c0.16,0.03,0.33,0.04,0.49,0.04
	c0.54,0,0.99-0.16,1.43-0.32c0.28-0.1,0.54-0.19,0.82-0.24l0.04-0.01l0.03-0.02c0.93-0.66,0.58-2.41,0.39-3.21l-0.05-0.23
	l-0.41-10.84c-0.17-0.45-0.08-1.07,0.01-1.67c0.17-1.17,0.36-2.5-1.42-2.81l-0.05-0.01l-0.27,0.1c-0.48,0.18-1.03,0.37-1.25,0.91
	c-0.19,1.41,0.04,2.68,0.27,3.9c0.18,0.98,0.37,2,0.34,3.04c-0.2,0.62-0.06,1.64,0.09,2.73c0.17,1.24,0.7,3.78,0.37,4.46
	c-0.58-0.26-1.48-2.68-1.97-3.71c-0.4-0.85-0.78-1.65-1.19-1.98c-0.44-0.88-1.2-1.67-1.94-2.44c-0.62-0.64-1.21-1.25-1.61-1.92
	c-0.2-0.19-0.42-0.41-0.66-0.64c-1.05-1.05-2.24-2.23-3.32-2.23c-0.75,0-1.31,0.59-1.68,1.75c-0.11,0.43-0.25,1.2-0.05,1.66
	c0.06,1.79,0.39,3.54,0.71,5.24c0.48,2.5,0.96,6.02,0.52,8.72l-0.01,0.08l0.07,0.05c0.08,0.06,0.14,0.13,0.21,0.2
	c0.15,0.15,0.32,0.32,0.56,0.35c0.17,0.14,0.35,0.21,0.53,0.21C33.95,38.64,34.24,38.36,34.53,38.09z M67.1,27.91
	c-1.5,0-2.89-0.7-3.12-2.06c0.23-0.5,1.01-1.02,1.43-0.4c-0.16,1.23,0.52,1.32,1.49,1.35c1.74-0.14,1.63-2.97-0.17-2.86l-0.06-0.03
	c-0.23,0.02-0.36,0.13-0.6,0.06c-0.16,0.1-0.41,0.03-0.52-0.05l-0.08,0.13c-5.41-1.76,2.01-8.21,4.23-3.41
	c-0.12,0.33-0.13,0.68-0.44,0.95c-0.32-0.07-0.65-0.01-0.92-0.3c-0.19-3.71-6.24,1.39-2.13,1.67c0.79,0.01,1.74-0.11,2.32,0.53
	c0.38,0.59,1.22,1.09,0.9,1.86C69.55,26.37,68.26,27.89,67.1,27.91z M72.61,28.09c0.12-0.16,0.41-0.33,0.41-0.51
	c0.24-0.67,0.34-1.19,0.62-1.85c0.35-0.3,0.17-1.05,0.56-1.21c0.82,0.92,1.02,2.23,1.81,3.12c0.42-0.07,0.69-0.48,1.09-0.51
	c0.25-0.27,0.06-0.67,0.21-0.93c-0.06-0.96,0.33-2.08,0.19-3c0.36-1.05,0.2-2.27,0.68-3.23c-0.04-0.13,0-0.25,0.08-0.39
	c0.48-1.05-0.84-1.11-1.41-0.3c-0.12,0.44-0.1,1.06-0.08,1.29c-0.57,0.82,0.05,1.87-0.54,2.65c0.05,0.6,0,1.06-0.09,1.75
	c-0.07,0.09-0.08,0.19-0.09,0.29c-0.39-0.29-0.29-0.68-0.59-1.07c-0.59-0.46-0.46-1.27-1.05-1.75c-0.43,0-1.09,0.21-1.01,0.65
	l-0.11,0.03c-0.16,0.67-0.3,1.4-0.69,1.94c-0.09-0.22-0.12-0.49-0.1-0.81c-0.05-1.7-0.41-3.3-0.65-4.98c0.07-0.56,0-1.24-0.8-1.36
	c-0.06,0.15-0.13,0.26-0.29,0.35c-0.7,0.27-0.1,1.4,0.15,1.84l0.25,1.76l-0.03,0.04c-0.25,1.95,0.71,3.78,0.52,5.71
	c-0.02,0.4,0.39,0.5,0.71,0.49L72.61,28.09z M80.82,27.71c0.73-0.46,2.04-0.58,2.84-0.91c0.66,0.06,1.3-0.32,1.54-0.85
	c-0.22-0.25-0.27-0.51-0.79-0.54c-1.23,0.17-2.17,0.53-3.29,0.76c-0.03-0.07-0.08-0.19-0.08-0.22l0.02-0.05
	c-0.11-0.51-0.12-1.52-0.1-2.13c0.75,0.03,1.34-0.2,2.07-0.32c0.51-0.2,1.32-0.08,1.24-0.98c-0.19-0.31-0.61-0.41-0.98-0.35
	c-0.57,0.47-1.67,0.23-2.4,0.43c0.14-0.55-0.27-1.41-0.04-1.92c1-0.31,2.13-0.08,3.14-0.48c0.35-0.17,0.71-0.56,0.32-1.01
	c-1.37-0.27-2.81,0.4-4.16,0.1c-1.04,0.29-0.75,1.6-0.65,2.33c-0.34,0.51,0.35,1.09-0.24,1.44c0.13,0.22,0.11,0.46,0.34,0.66
	c0.16,1.08-0.03,2.47,0.15,3.58c0.19,0.33,0.47,0.53,0.79,0.53C80.62,27.76,80.69,27.75,80.82,27.71z M87.31,27.48
	c0.72-0.42,1.84-0.09,2.64-0.39c0.56,0.04,1.09-0.28,1.35-0.75c-0.67-0.98-2.58-0.19-3.7-0.24c-0.09-0.31-0.16-0.77-0.14-0.94
	c0.18-0.24-0.1-1.03-0.06-1.4c0.54-0.02,1.34-0.12,1.94-0.21c0.47-0.18,1.19-0.07,1.12-0.88c-0.17-0.27-0.55-0.37-0.87-0.32
	c-0.47,0.41-1.4,0.26-2.03,0.4c-0.14,0-0.17-0.23-0.17-0.23l0,0c0.1-0.62-0.13-2.31,0.1-2.83c0.85-0.26,1.94-0.06,2.8-0.43
	c0.3-0.13,0.65-0.53,0.26-0.91c-1.2-0.23-2.51,0.38-3.67-0.01c-0.9,0.21-0.76,2.25-0.64,3.45c-0.31,0.45,0.26,1.05-0.26,1.35
	c0.12,0.2,0.1,0.41,0.31,0.6c0.13,0.97-0.07,2.32,0.09,3.31c0.16,0.3,0.42,0.48,0.7,0.48C87.14,27.52,87.19,27.52,87.31,27.48z
	 M93.3,28.12c0.06-1.25,0.1-1.43-0.07-2.68c0.25-0.36-0.11-0.85,0.12-1.14c2.31,0.36,4.48-1.56,4.1-3.57
	c0.04-0.58-0.39-0.98-0.83-1.28c-0.85-0.29-1.95-0.64-3.05-0.5c-0.24,0.14-0.7,0.05-0.99,0.07c-0.51,0.1-0.81,0.41-0.78,0.79
	c0.28,0.32,0,0.73,0.21,1.11c0.18,0.51-0.18,4.06,0.16,6.38C92.35,28.46,92.68,29.02,93.3,28.12z M93.24,21.44
	c-0.05-0.13-0.02-0.31-0.03-0.45c0.07-0.29,0.07-0.48-0.04-0.8c0.1-0.05,0.26-0.07,0.37-0.13c0.92-0.13,1.96-0.17,2.7,0.55
	c0.52,1.56-1.07,3.04-2.89,2.55C93.19,22.63,93.29,22.03,93.24,21.44z M99.69,27.03c0.67-0.42,1.87-0.53,2.6-0.83
	c0.61,0.05,1.19-0.3,1.42-0.78c-0.21-0.22-0.25-0.46-0.72-0.5c-0.8,0.09-2.09,0.5-3.02,0.7c-0.03-0.07-0.08-0.18-0.08-0.2l0.02-0.05
	c-0.1-0.46-0.11-1.4-0.09-1.95c0.68,0.03,1.23-0.19,1.9-0.3c0.47-0.19,1.21-0.08,1.14-0.9c-0.17-0.28-0.56-0.38-0.9-0.32
	c-0.52,0.43-1.53,0.21-2.2,0.4c0.13-0.5-0.25-1.29-0.04-1.76c0.92-0.28,1.96-0.07,2.88-0.44c0.32-0.15,0.65-0.52,0.3-0.92
	c-1.25-0.24-2.58,0.37-3.82,0.09c-0.95,0.27-0.69,1.47-0.6,2.14c-0.31,0.47,0.31,1-0.21,1.32c0.12,0.21,0.1,0.42,0.31,0.6
	c0.15,0.99-0.03,2.26,0.14,3.28c0.17,0.31,0.43,0.48,0.72,0.48C99.51,27.07,99.57,27.07,99.69,27.03z M105.86,27.87
	c0.35-1.75,0.12-3.2,0.4-3.78c0.11,0.26,0.22,0.49,0.34,0.56c0.48,1.06,1.49,1.74,2.15,2.69c0.51,0.31,1.44,0.21,1.23-0.5
	c-1.19-1.25-2.53-2.47-3.09-4.08c0.69-0.43,0.71-0.28,1.47-0.8l0.62-0.78c0.69-0.55,0.37-1.47,0.25-2.12l-0.34-0.27
	c-0.64-0.3-1.76-0.52-2.61-0.27c0.04-0.21,0.09-0.39,0.01-0.53c-0.18-0.13-0.62-0.17-0.79-0.05c-0.45,0.06-0.75,0.4-0.6,0.78
	c-0.15,0.14-0.3,0.24-0.49,0.24c-0.56,0.13-0.5,0.64-0.48,0.94c0.24,0.31,0.67,0.25,0.99,0.1c0.03,0.29-0.04,0.61,0.08,0.9
	c-0.06,0.36,0,1,0.06,1.29c-0.17,1.45,0.03,3.59-0.14,5.46c0.26,0.1,0.39,0.33,0.71,0.36L105.86,27.87z M107.62,19.38l0.6,0.46
	l0.08,0.32c0.09,0.17-0.16,0.22-0.13,0.42c-0.3,0.68-1.08,1-1.93,1.28c-0.04,0-0.09,0-0.13,0.02c0-0.57-0.06-1.76-0.01-2.24
	C106.57,19.5,107.17,19.37,107.62,19.38z M51.82,37.8c1.66-1,4.26-0.2,6.11-0.92c1.28,0.09,2.54-0.67,3.13-1.77
	c-1.56-2.31-5.97-0.44-8.56-0.56c-0.22-0.73-0.38-1.79-0.33-2.2c0.42-0.56-0.24-2.42-0.14-3.28c1.26-0.05,3.1-0.28,4.49-0.48
	c1.07-0.43,2.74-0.18,2.58-2.07c-0.4-0.64-1.27-0.88-2.02-0.74c-1.09,0.95-3.24,0.6-4.7,0.94c-0.32,0-0.38-0.54-0.39-0.54l0,0
	c0.24-1.46-0.56-2.89-0.03-4.11c1.97-0.6,4.48-0.16,6.48-1.02c0.7-0.31,1.51-1.25,0.6-2.14c-2.77-0.54-5.8,0.89-8.49-0.02
	c-2.09,0.5-1.5,2.76-1.21,5.57c-0.71,1.06,0.6,2.45-0.6,3.17c0.27,0.48,0.23,0.97,0.71,1.4c0.3,2.26-0.16,5.43,0.22,7.75
	c0.36,0.7,0.98,1.12,1.64,1.12C51.43,37.91,51.55,37.89,51.82,37.8z"/>
</svg>
