<svg xmlns="http://www.w3.org/2000/svg" xmlns:xlink="http://www.w3.org/1999/xlink" viewBox="0 0 780.1 175.5" style="enable-background:new 0 0 780.1 175.5;" xml:space="preserve">
<style type="text/css">
	.st0{fill:#9F9F9F;}
	.st1{fill:#FF8446;}
</style>
<g>
	<path class="st0" d="M82.1,90.8v37.3c0,2.9-2.4,5.3-5.3,5.3c-2.9,0-5.3-2.4-5.3-5.3V90.8L39.6,72.4c-2.5-1.5-3.4-4.7-1.9-7.3
		c1.5-2.5,4.7-3.4,7.3-1.9l31.9,18.4L109.1,63c2.5-1.5,5.8-0.6,7.2,2c1.5,2.5,0.6,5.8-2,7.2L82.1,90.8L82.1,90.8z M138.8,107.8
		c0-4.2,3.4-7.6,7.6-7.6c4.2,0,7.6,3.4,7.6,7.6v20c0,2.8-1.5,5.2-3.8,6.5l-69.4,40.1c-2.5,1.4-5.4,1.3-7.7-0.1l-17.3-10
		c-3.6-2.1-4.9-6.7-2.8-10.4c2.1-3.6,6.7-4.9,10.4-2.8l13.5,7.8l61.8-35.7L138.8,107.8L138.8,107.8L138.8,107.8z M15.2,67.7
		c0,4.2-3.4,7.6-7.6,7.6c-4.2,0-7.6-3.4-7.6-7.6v-20c0-2.8,1.5-5.2,3.8-6.5L73.2,1c2.5-1.4,5.4-1.3,7.7,0.1l17.3,10
		c3.6,2.1,4.9,6.7,2.8,10.4c-2.1,3.6-6.7,4.9-10.4,2.8L77,16.4L15.2,52.1V67.7z"/>
	<path class="st1" d="M46.1,141.6c3.6,2.1,4.9,6.7,2.8,10.3c-2.1,3.6-6.7,4.9-10.3,2.8L3.8,134.6c-2.4-1.4-3.8-3.9-3.8-6.5V88.3
		c0-4.2,3.4-7.6,7.5-7.6c4.2,0,7.6,3.4,7.6,7.6v35.4L46.1,141.6L46.1,141.6z M108.1,34.9c-3.6-2.1-4.8-6.7-2.8-10.3
		c2.1-3.6,6.7-4.8,10.3-2.8l34.6,20c2.4,1.4,3.8,3.9,3.8,6.5l0,39.9c0,4.2-3.4,7.6-7.6,7.6c-4.2,0-7.6-3.4-7.6-7.6V52.6L108.1,34.9
		L108.1,34.9z"/>
</g>
<g>
	<path class="st0" d="M230.8,67.1c4.8,5,7.1,11.7,7.1,20.3s-2.4,15.3-7.1,20.3c-4.8,5-11.2,7.5-19.3,7.5c-8.2,0-14.6-2.5-19.4-7.5
		c-4.8-5-7.1-11.7-7.1-20.3s2.4-15.3,7.2-20.3c4.8-5,11.2-7.5,19.3-7.5C219.6,59.7,226,62.2,230.8,67.1z M202.3,75.2
		c-2.3,3-3.5,7.1-3.5,12.2c0,5.1,1.1,9.1,3.4,12.2c2.3,3,5.3,4.5,9.2,4.5c3.8,0,6.9-1.5,9.1-4.5c2.3-3,3.5-7.1,3.5-12.2
		c0-5.1-1.2-9.2-3.5-12.2c-2.3-3-5.3-4.5-9.1-4.5C207.6,70.7,204.6,72.2,202.3,75.2z"/>
	<path class="st0" d="M241.9,72.9h12.8v7.8h0.3c2.3-5.6,6.7-8.5,13.2-8.5c4.6,0,8.2,1.4,10.9,4.1c2.6,2.8,3.9,6.6,3.9,11.4v26.5
		h-13.2V90.6c0-2.4-0.6-4.3-1.9-5.6c-1.3-1.4-3-2-5.3-2c-2.2,0-4,0.7-5.4,2.2c-1.4,1.5-2.1,3.4-2.1,5.8v23.3h-13.2V72.9z"/>
	<path class="st0" d="M289.1,57.9h13.2v56.3h-13.2V57.9z"/>
	<path class="st0" d="M310.5,67.6c-1.3-1.2-2-2.8-2-4.6c0-1.8,0.7-3.4,2-4.6c1.3-1.2,2.9-1.9,4.8-1.9c1.9,0,3.5,0.6,4.8,1.9
		c1.3,1.3,2,2.8,2,4.6c0,1.9-0.7,3.4-2,4.6c-1.3,1.2-2.9,1.9-4.8,1.9C313.4,69.4,311.8,68.8,310.5,67.6z M308.7,72.9h13.2v41.4
		h-13.2V72.9z"/>
	<path class="st0" d="M328.2,72.9h12.8v7.8h0.3c2.3-5.6,6.7-8.5,13.2-8.5c4.6,0,8.2,1.4,10.9,4.1c2.6,2.8,3.9,6.6,3.9,11.4v26.5H356
		V90.6c0-2.4-0.6-4.3-1.9-5.6c-1.3-1.4-3-2-5.3-2c-2.2,0-4,0.7-5.4,2.2c-1.4,1.5-2.1,3.4-2.1,5.8v23.3h-13.2V72.9z"/>
	<path class="st0" d="M413.9,101.2c-0.6,4.2-2.7,7.6-6.2,10.1c-3.5,2.5-8,3.8-13.3,3.8c-6.5,0-11.7-1.9-15.4-5.7
		c-3.7-3.8-5.6-9-5.6-15.7c0-6.7,1.8-12,5.5-15.9c3.7-3.9,8.7-5.9,15-5.9c6.2,0,11.1,1.9,14.8,5.6c3.7,3.8,5.5,8.8,5.5,15.1v3.8h-28
		v0.8c0,2.5,0.8,4.6,2.3,6.1c1.5,1.6,3.5,2.4,6,2.4c3.9,0,6.4-1.5,7.5-4.5H413.9z M388.7,83.5c-1.4,1.4-2.2,3.2-2.4,5.4h15.4
		c-0.1-2.3-0.9-4.1-2.3-5.5c-1.4-1.4-3.2-2-5.4-2C392,81.3,390.2,82,388.7,83.5z"/>
	<path class="st0" d="M449.2,114.2h-13.6V60.6h23c6.6,0,11.7,1.6,15.3,4.7c3.5,3.1,5.3,7.4,5.3,13c0,3.4-0.8,6.4-2.4,9.1
		c-1.6,2.8-3.9,4.8-6.8,6.1l10.7,20.8h-15.3l-9.2-18.8h-7.1V114.2z M449.2,86.1h8.1c2.5,0,4.5-0.7,5.9-2c1.4-1.4,2.1-3.2,2.1-5.5
		c0-2.3-0.7-4.2-2.2-5.5c-1.5-1.4-3.4-2.1-5.8-2.1h-8V86.1z"/>
	<path class="st0" d="M484.8,111.3c-2.7-2.4-4.1-5.4-4.1-9c0-7.8,5.6-12,16.8-12.7l9.7-0.6v-2.4c0-1.7-0.6-2.9-1.7-3.9
		c-1.1-0.9-2.6-1.3-4.5-1.3c-1.8,0-3.2,0.4-4.4,1.3c-1.1,0.8-1.8,1.9-2,3.2h-11.9c0.2-4.2,2-7.5,5.4-10.1c3.4-2.6,7.9-3.8,13.5-3.8
		c5.5,0,9.9,1.3,13.3,3.8c3.4,2.6,5.1,5.9,5.1,10.1v28.3h-12.8v-5.9H507c-1.1,2-2.8,3.6-5.1,4.8c-2.2,1.1-4.6,1.7-7.2,1.7
		C490.7,114.8,487.4,113.6,484.8,111.3z M504.8,103.9c1.6-1.2,2.3-2.7,2.3-4.6v-2.9l-7.6,0.5c-3.9,0.3-5.8,1.7-5.8,4.4
		c0,1.3,0.5,2.4,1.5,3.1c1,0.8,2.3,1.2,4.1,1.2C501.5,105.6,503.3,105.1,504.8,103.9z"/>
	<path class="st0" d="M527.6,109.1c-2.9-3.8-4.4-9-4.4-15.6c0-6.6,1.5-11.7,4.5-15.5c3-3.8,7-5.6,12.2-5.6c2.9,0,5.5,0.7,7.8,2.2
		c2.2,1.4,3.7,3.3,4.6,5.6h0.3V57.9h13.2v56.3h-13.1v-7.1h-0.2c-0.9,2.3-2.4,4.1-4.6,5.5c-2.3,1.4-5,2.2-8,2.2
		C534.6,114.8,530.5,112.9,527.6,109.1z M538.8,85.6c-1.4,2-2.2,4.6-2.2,8c0,3.4,0.7,6,2.2,8c1.4,1.9,3.4,2.9,5.8,2.9
		c2.5,0,4.4-1,5.8-2.9c1.4-1.9,2.1-4.6,2.1-8c0-3.3-0.7-6-2.1-8c-1.4-2-3.4-2.9-5.8-2.9S540.2,83.6,538.8,85.6z"/>
	<path class="st0" d="M573.8,67.6c-1.3-1.2-2-2.8-2-4.6c0-1.8,0.7-3.4,2-4.6c1.3-1.2,2.9-1.9,4.8-1.9c1.9,0,3.5,0.6,4.8,1.9
		c1.3,1.3,2,2.8,2,4.6c0,1.9-0.7,3.4-2,4.6c-1.3,1.2-2.9,1.9-4.8,1.9C576.7,69.4,575.1,68.8,573.8,67.6z M572,72.9h13.2v41.4H572
		V72.9z"/>
	<path class="st0" d="M594,109.4c-3.8-3.8-5.7-9.1-5.7-15.9c0-6.7,1.9-11.9,5.7-15.8c3.8-3.8,8.9-5.8,15.4-5.8
		c6.5,0,11.6,1.9,15.4,5.7c3.8,3.8,5.7,9.1,5.7,15.8c0,6.8-1.9,12.1-5.7,15.9c-3.7,3.8-8.9,5.6-15.4,5.6
		C602.8,115.1,597.7,113.2,594,109.4z M615,102.3c1.4-2.1,2.1-5,2.1-8.8c0-3.7-0.7-6.6-2.1-8.7c-1.4-2.1-3.3-3.1-5.6-3.1
		c-2.4,0-4.3,1-5.7,3.1c-1.4,2.1-2.1,5-2.1,8.7c0,3.8,0.7,6.7,2,8.8c1.4,2.1,3.3,3.1,5.7,3.1C611.8,105.4,613.7,104.4,615,102.3z"/>
	<path class="st0" d="M651.9,114.2V60.6H677c5.3,0,9.4,1.2,12.5,3.6c3,2.4,4.5,5.7,4.5,9.8c0,3-1,5.6-3,7.8c-2,2.2-4.5,3.4-7.5,3.9
		v0.3c3.7,0.2,6.7,1.5,9.2,3.9c2.5,2.5,3.8,5.5,3.8,9c0,4.7-1.7,8.5-5.1,11.3c-3.4,2.8-8,4.2-13.7,4.2H651.9z M665.6,82.5h7.2
		c2.5,0,4.4-0.6,5.8-1.7c1.4-1.1,2.1-2.6,2.1-4.5c0-1.9-0.6-3.3-1.9-4.4c-1.3-1.1-3.1-1.6-5.4-1.6h-7.8V82.5z M673.8,104.6
		c2.8,0,5-0.6,6.5-1.8c1.5-1.2,2.3-2.9,2.3-5.2c0-2.2-0.8-3.9-2.3-5.1c-1.5-1.2-3.7-1.8-6.5-1.8h-8.2v13.8H673.8z"/>
	<path class="st0" d="M705,109.4c-3.8-3.8-5.7-9.1-5.7-15.9c0-6.7,1.9-11.9,5.7-15.8c3.8-3.8,8.9-5.8,15.4-5.8
		c6.5,0,11.6,1.9,15.4,5.7c3.8,3.8,5.7,9.1,5.7,15.8c0,6.8-1.9,12.1-5.7,15.9c-3.7,3.8-8.9,5.6-15.4,5.6
		C713.8,115.1,708.7,113.2,705,109.4z M726,102.3c1.4-2.1,2.1-5,2.1-8.8c0-3.7-0.7-6.6-2.1-8.7c-1.4-2.1-3.3-3.1-5.6-3.1
		c-2.4,0-4.3,1-5.7,3.1c-1.4,2.1-2.1,5-2.1,8.7c0,3.8,0.7,6.7,2,8.8c1.4,2.1,3.3,3.1,5.7,3.1C722.8,105.4,724.7,104.4,726,102.3z"/>
	<path class="st0" d="M758.6,100.5l-6.8,13.7h-13.7l12.5-20.6l-12.5-20.8H753l6.3,13.3h0.3l6.3-13.3h14.2l-12.5,20.5l12.5,20.9
		h-14.3l-6.9-13.7H758.6z"/>
</g>
</svg>
