<svg xmlns="http://www.w3.org/2000/svg" viewBox="0 0 640 360" style="enable-background:new 0 0 640 360;" xml:space="preserve">
<style type="text/css">
	.st0{fill:#FF2E57;}
	.st1{fill:#C354C7;}
	.st2{fill:#922E96;}
	.st3{fill:#DE002C;}
	.st4{fill:#B38600;}
	.st5{fill:#F5B800;}
	.st6{fill:#48C91B;}
	.st7{fill:#258C00;}
	.st8{fill:#00C1CF;}
	.st9{fill:#00838C;}
	.st10{fill:#0C6EE3;}
	.st11{fill:#0955B0;}
</style>
<g>
	<g>
		<path class="st0" d="M543.4,258.7c-123.1,11-250.9,32.4-351.8,70.7c-2.2,0.8-2.3,2.3-1.9,4.4l3.3,8.9c0.4,2.1,1.8,4,3.5,3.3
			c109.2-48.9,238.1-70.8,347.9-83.4c1.8-0.2,1.8-0.4,1.7-2l-0.2-0.4C545.8,258.5,545.9,258.5,543.4,258.7z"/>
		<path class="st0" d="M172.2,303.7c3.6-2,7.7-7.9,10-11.6c3.9-6.2,8.2-15.9,14.2-35.6c2.8-9.2,9.6-16.2,18.1-22
			c3.2-2.2,7-3.2,10.7-4.2c7.2-2,14.3-2.1,21.5-0.1c2.2,0.6,4.4,1.4,6.3,2.9c1.6,1.3,1.9,2.3,1.3,4.3c-0.7,2.2-2.1,3.9-3.8,5.3
			c-0.4,0.3-1.1,0.4-1.7,0.3c-1.4-0.2-2.8-0.4-4.2-0.7c-3.4-0.7-6.7-1.8-10.1-1.9c-7.8-0.4-13.6,3.3-17.8,9.7
			c-4.1,6.4-5.9,13.5-5.7,21c0,2.2,0.2,4.5,1,6.5c1.4,3.7,3.7,4,7,2.3c1.8-1,2.8-2.6,3.8-4.4c3.8-7.1,5.7-14.7,7-22.5
			c0.2-1.2,0.5-2.4,0.5-3.5c0-2.5,1.4-3.8,3.7-4.4c3.6-0.9,7.2-0.9,10.7,0.3c1.4,0.4,2.1,1.3,2.2,2.8c0.4,3.2,0,6.3-0.4,9.4
			c-0.4,3.4-0.8,6.9-1,10.4c-0.1,1.7,0.4,3.4,0.8,5.1c0.4,1.4,1.4,1.9,2.9,1.7c2.1-0.3,3.6-1.5,4.9-3.1c2.3-2.7,4-5.8,5.2-9.1
			c3.5-9.6,6.1-19.5,7.8-29.5c0.5-2.9,0.4-5.8-0.8-8.5c-0.4-0.9-0.9-1.7-1.5-2.5c-4-5.8-0.1-14.2,6.9-15.1c2-0.3,3.7,1,4.3,3.6
			c0.3,1.2,0.5,2.4,0.6,3.7c0.1,2.9,1.3,5.1,3.9,6.4c2.2,1.1,4.3,2.3,6.3,3.6c2.3,1.4,4.5,3,6.6,4.6c2.3,1.8,3.6,4.2,4.2,7
			c0.3,1.6-0.1,3.1-0.8,4.6c-1.2,2.7-2.5,5.3-3.6,8c-1,2.6-2,5.3-2.6,8.1c-0.4,1.8-0.3,3.9,0,5.8c0.4,3.3,2.3,4.7,5.5,4.3
			c3.4-0.4,6.4-1.7,8.3-4.7c1.5-2.3,2.7-4.7,3.9-7.2c1.2-2.6,4.8-12.4,5.5-14.8c3.2-11.1,9.4-20.1,18.7-27
			c7.3-4.5,16.3-6.2,19.3-6.5c6.3-0.6,12.4,0.1,18.2,2.7c0.7,0.3,1.5,0.8,2.1,1.3c2.1,1.7,2.5,2.3,1.4,4.9c-0.8,1.8-2.2,3.3-3.5,4.9
			c-0.3,0.4-1.2,0.4-1.8,0.4c-1.4-0.1-2.8-0.4-4.2-0.7c-3.4-0.7-6.7-1.8-10.1-1.9c-7.8-0.4-13.6,3.3-17.8,9.7
			c-4.1,6.4-5.9,13.5-5.7,21c0,2.2,0.2,4.5,1,6.5c1.4,3.7,3.7,4,7,2.3c1.8-1,2.8-2.6,3.8-4.4c3.8-7.1,5.7-14.7,7-22.5
			c0.2-1.2,0.5-2.4,0.5-3.5c0-2.5,1.4-3.8,3.7-4.4c3.6-0.9,7.2-0.9,10.7,0.3c1.4,0.4,2.1,1.3,2.2,2.8c0.4,3.2,0,6.3-0.4,9.4
			c-0.4,3.4-0.8,6.9-1,10.4c-0.1,1.7,0.4,3.4,0.8,5.1c0.4,1.4,1.4,1.9,2.9,1.7c2.1-0.3,3.6-1.5,4.9-3.1c3.2-3.9,5.1-8.3,6.7-13
			c0.5-1.5,0.9-3.1,1.5-4.6c1.8-4.5,2.6-9.3,4.9-13.7c5.6-10.3,13.7-17.5,24.6-21.8c7.4-2.9,15-3.5,22.8-1.6
			c2.8,0.7,5.4,1.9,7.9,3.5c1.1,0.8,1.6,1.7,1.4,3.1c-0.5,2.7-2,4.8-4.1,6.4c-0.5,0.4-1.5,0.4-2.2,0.3c-2.1-0.4-4.1-0.9-6.1-1.3
			c-4-0.8-7.9-1.4-12-0.8c-5.1,0.7-8.9,3.4-11.9,7.5c-4.8,6.8-6.7,14.5-6.8,22.6c0,1.6,0.2,3.3,0.4,4.9c0.1,0.6,0.2,1.2,0.5,1.7
			c1.4,3.1,3.3,3.9,6.4,2.4c2.1-1,3.6-2.6,4.7-4.6c2.8-4.9,4-10.2,5.1-15.6c0.7-3.7,1.3-7.4,2-11c0.6-3,1.5-3.6,4.9-4.2
			c3.5-0.5,6.9-0.3,10.2,0.9c1.5,0.6,1.9,1,1.8,2.6c-0.2,4.7-0.3,9.4-0.7,14.1c-0.5,6.6-1.1,13.2-1.6,19.8c0,0.4,0.2,0.9,0.4,1.3
			c0.4-0.1,0.9-0.1,1.2-0.4c4.3-3,5.9-5.5,9.5-11.9s5.4-10.8,6.6-20.6c1.2-9.8,6-21.4,19.3-29.5c5.5-2.9,11.6-3.9,17.8-3.1
			c6.7,0.8,11.1,5.1,12.5,11.7c1.4,6.6-0.6,12.1-5.2,16.7c-5.3,5.3-11.9,8-19.3,8.9c-1.5,0.2-3,0.2-4.5,0.3c-1.4,0.1-1.8,0.7-1.5,2
			c1.2,5.2,4.6,8.2,9.9,8.6c4.3,0.4,8.4-0.4,12.3-2.3c4.2-2.1,6.8-5.7,9-9.6c1.5-2.7,2.5-5.6,3.7-8.4c0.6-1.2,1.2-2.5,2-3.6
			c0.7-1,1.6-1.3,2.8-0.7c0.5,0.2,1.1,0.3,1.6,0.5c1.5,1,1.6,1.7,0.9,4.6c-0.8,3-5.5,12.5-8.5,16.8c-4.2,6.2-16.4,14.2-26.4,15
			c-13,1-18.5-3-22.9-10.3c-0.2-0.3-0.4-0.6-0.6-1.1c-0.6,1.3-1.2,2.4-1.8,3.6c-3.1,5.8-6.4,11.4-11.1,16.1
			c-1.3,1.3-2.9,2.3-4.4,3.5c-2,1.5-3.9,3.1-4.5,5.7c-0.4,1.6-0.5,3.2-0.6,4.9c-0.4,5-2.3,15.4-3.8,20.2
			c-2.3,7.8-7.7,12.6-15.3,14.9c-3.3,1-6.6,1.8-10,1.5c-5.7-0.6-10.2-3.9-11.7-9.8c-3.2-12.4,3.1-21.1,10.3-25.4c2.7-1.6,7.3-4,11-6
			c0.7-0.4,1.4-0.9,2.1-1.5c2-1.5,3.1-3.4,3.5-5.9c0.6-4.4,1.3-8.7,2-13.1c0-0.1,0-0.2-0.1-0.6c-1.4,2.4-2.7,4.5-4,6.7
			c-1.7,3.1-3.5,6-6.6,7.9c-3.9,2.4-8.2,3.3-12.6,3.8c-3.6,0.3-6.4-1.5-8.8-4c-2.2-2.4-3.7-5.2-4.6-8.4c0-0.2-0.1-0.3-0.3-0.8
			c-0.8,1.6-1.5,3-2.2,4.3c-2.9,5.4-6.6,10.1-12.3,12.7c-2.4,1.2-5.1,1.9-7.8,2.5c-2.8,0.7-5-0.6-6.6-3.3c-1.4-2.4-1.9-5.1-2.5-7.8
			c-0.2-0.8-0.3-1.5-0.4-2.3c-0.1,0-0.2-0.1-0.3-0.1c-0.2,0.3-0.5,0.7-0.6,1c-0.5,3.3-2.4,6-4.2,8.7c-2.4,3.7-5.4,6.9-9.6,8.4
			c-4.6,1.7-9.4,2.4-14.1,0.4c-3.9-1.6-6.1-4.8-7.6-8.6c-0.1-0.3-0.3-0.6-0.4-0.9c-0.1-0.3-0.2-0.5-0.3-1.1
			c-0.4,0.8-0.8,1.3-1.1,1.9c-3.3,5.7-7.4,10.7-13,14.3c-4.3,2.8-9.1,3.9-14.1,3.2c-5.9-0.8-9.6-4.2-11.7-9.7
			c-1.8-4.7-1.4-9.4,0.2-14.1c1.3-3.6,2.8-7.2,4.2-10.8c0.6-1.6,1.2-3.2,1.8-4.8c0.7-1.7,0.3-3.2-0.8-4.5c-1.3-1.4-2.7-2.8-4.2-4
			c-1.2-1-2-0.5-2.2,1.1c-3.4,14.4-7.7,31.3-10.7,38c-2.5,5.4-5.9,10.2-10.9,13.5c-3.1,2.1-6.6,3.3-10.3,3.9c-2.9,0.5-5-0.9-6.5-3.3
			c-1.5-2.4-2-5.2-2.6-8c-0.2-0.7-0.3-1.4-0.4-2.2c-0.1,0-0.2,0-0.3-0.1c-0.2,0.3-0.5,0.6-0.6,0.9c-0.4,3.2-2.2,5.8-3.9,8.4
			c-2.5,3.9-5.5,7.2-10,8.9c-4.6,1.7-9.3,2.4-14,0.4c-3.9-1.6-6.1-4.8-7.7-8.5c-0.2-0.5-0.4-0.9-0.6-1.4c-0.5,0.8-1,1.5-1.5,2.2
			c-5.2,9.5-11.5,18.5-17.6,24.5c-1.5,1.5-3.7,4.1-5.1,5.7L172.2,303.7z M474.4,196.9c-0.9,1.4-1.8,2.8-2.3,4.3
			c-0.9,2.8-1.6,5.7-2.3,8.5c-0.5,1.8,0.5,2.8,2.3,2.2c2.8-0.8,5.5-2,7.8-3.8c3.8-2.9,6-6.6,4.7-11.6c-0.2-0.8-0.9-1.8-1.6-2.2
			C480,192.6,476.7,193.4,474.4,196.9z M404,288.1c0.5,2.8,1.9,4.8,4.3,4.3c2-0.4,3.3-2.6,4.2-4.4c2.1-3.9,4.5-17,4.7-21.3
			c0-0.3-0.2-0.8-0.4-0.8c-0.4-0.1-0.8,0-1.1,0.2C409.3,268.1,403.1,281.6,404,288.1z M171.7,327.6c-0.7,4-3.3,16.7-5.2,20.3
			c-2.7,5-6.8,8.4-12.2,10.1c-4.8,1.6-9.6,2.4-14.7,1.7c-3-0.4-5.7-1.4-8-3.3c-2.3-1.9-3.3-4.4-3.8-7.2
			c-1.9-10.3,1.5-23.4,11.1-29.5c5.7-3.6,9.7-5.4,13.9-7.3c3.3-1.5,4.7-3.9,4.9-7.3c0.2-2.6,0.6-11.5,0.7-14c0-0.3-0.1-0.6-0.3-1.1
			c-0.6,0.6-1,1.1-1.4,1.5c-7.6,8.6-17.2,12.2-28.5,10.8c-7.7-0.9-13.4-5.5-17.8-11.7c-3.8-5.4-5.9-11.4-7.1-17.9
			c-2.4-12.9-0.3-25.3,4.4-37.4c0.5-1.2,1-2.3,1.5-3.5c0.4-1,0.6-2,0-3c-1.2-2-2.5-3.9-3.8-5.9c-1.9-2.7-4-5.2-5.1-8.4
			c-0.2-0.7-0.4-1.5-0.6-2.2c-0.9-3.7,1-4.4,4.5-4.7c2-0.2,3.4,0.8,4.4,2.4c1.1,1.9,2.1,3.8,3.2,5.7c0.6,1.1,1.3,2.2,1.8,3.3
			c0.8,1.7,2.3,1.5,3.4,0.3c5.3-6,11.1-11.6,18.2-15.5c8.6-4.6,17.8-6.3,27.4-4.3c6.1,1.2,11,4.3,13.6,10.3
			c2.9,6.8,2.3,13.6-1.5,19.9c-5.5,9.2-13.7,14.2-24.3,15.4c-8.4,1-16.5-0.5-24.4-3.5c-1.8-0.7-2.7-0.2-3.2,1.6
			c-2,7.2-2.7,14.6-1.9,22c0.4,3.7,0.9,7.4,1.7,11.1c0.9,4.2,3,7.8,6.4,10.5c4.7,3.7,10,3.7,15.4,2.2c5.2-1.4,8.5-5.2,10.9-9.8
			c2.2-4.3,3.4-9,4.9-13.5c0.7-2.3,1.5-4.5,2.4-6.7c0.9-2.1,2.5-3.3,4.8-3.5c2.6-0.2,5.3-0.5,7.8,0.4c3.6,1.3,4.1,1.7,3.9,5.2
			c-0.3,5.3-0.9,10.5-1.5,15.7c-0.5,5-2.1,15.7-2.7,20.7C174.9,297.6,172.5,323,171.7,327.6z M146.1,232.8c1.1-0.3,2.3-0.6,3.4-1
			c5.8-2.1,9.8-7.7,9.9-13.7c0.1-3.8-1.1-5.6-4.1-6.5c-0.6-0.2-1.3-0.3-2-0.4c-4.2-0.3-8.1,0.7-11.7,2.8c-5.9,3.5-9.9,8.8-13.3,14.6
			c-0.6,1.1,0,2.3,1.3,2.5c2.4,0.5,4.8,0.9,7.2,1.4C140,233.2,143,233.3,146.1,232.8z M156.3,319.9c-0.8-0.4-4.4,2.7-6.8,4.5
			c-7.2,5.6-8.3,17.4-8.4,18.9s1.1,3.2,2.5,4.2c1.4,1,2.8,1,4.3,0.3c2.6-1.2,3.8-3.6,4.7-6c1.4-3.7,3.9-18.8,4-20.4
			C156.6,320.7,156.8,320.1,156.3,319.9z"/>
	</g>
	<g>
		<path class="st1" d="M638.7,134.6l-0.7-2.3l1.2,0.7l0.7-0.6l-0.8-21c-0.1-2.3-2.1-4.3-4.6-4.3l-56.7,0.8l0.4-17.6l46.3-5.5
			c2.3-0.4,3.5-1.9,3.5-4.2l-0.8-22.1c-0.1-2.3-2.3-4.3-4.6-4.3l-0.9,0l-43.7,1.7l0.2-5.1c-12,1.4-36.6,4.3-36.6,4.3s0,86.1,0,86.1
			c0,3.5,2.6,4.5,5.2,4.5l89.3-3.3c2.8-0.2,4-1.6,3.9-4.2l-0.1-2.9L638.7,134.6z"/>
		<path class="st2" d="M529.1,36.4c-0.2,3.9-0.3,7.8-0.4,11.6c12.1-1.3,24.1-2.6,36.2-3.9l0.2-4.8l58.2-5.3c2.5-0.2,3.8-1.6,3.9-4.2
			l-0.3-25.3C626.8,2,624.8,0,622,0l-87.2,2.7c-2.6,0-3.8,1.2-4.1,3.8c-0.6,9.3-1.1,18.7-1.5,28l1.6,0.5l-0.5,2L529.1,36.4z"/>
		<path class="st0" d="M529.7,105.2l-25.6,0.6l0.2,0.6l-2.4,0.7l-2.1-1.1l-19.2,0.4V62.5c-12.2,1.5-24.4,3.1-36.7,4.6v78.4
			c0.1,1.5,0.4,2.5,1.3,3.3c0.9,0.9,1.4,1.2,2.9,1.2l82.7-4.8c2.8,0,4.3-1.6,4.2-4.4v-31.1C534.8,107.1,532.3,105.2,529.7,105.2z"/>
		<path class="st3" d="M467.7,54.9V5.6c-0.1-2.4-2.1-4.5-4.5-4.5l-27.9-0.4c-2.8,0-4,1.4-4.1,4.2v54.2
			C443.4,57.7,455.5,56.2,467.7,54.9z"/>
		<path class="st4" d="M329.8,50.1l39.3-8.8l-9.8,15.4l1,1.8l-2,0.5l0.7,1.8l-2.4,0.7l-0.2-0.1l-4.6,7.2c16.1-2,32.2-3.9,48.4-5.9
			l15-23.9c2.9-4.6,4.4-9.8,4.9-15c0.2-6.9-1.8-12.3-6-16.4c-5.2-5-13.7-6.3-21.9-6.2l0.1,0.2l-2.4,0.7l-1.4-0.8
			c-3.7,0.2-7.2,0.6-10.2,1l-50.6,8c-2.6,0.5-3.8,1.8-3.7,4.4l0.5,31.1C324.1,48.6,326.8,50.8,329.8,50.1z"/>
		<path class="st5" d="M427.1,101.4c-8.5,3.3-17.9,6.4-27,8.2c-4.3,1.1-9,1.6-14.6,2.1L410.4,72c-16.3,2.1-32.6,4.3-49,6.6
			c-1.2,1.9-2.5,3.8-3.7,5.7l-6.9,11.3c-2.1,3-5.7,9.4-6.7,11.5c-2.6,6.3-5.3,14.1-5.1,21c0.3,7.6,4.4,13.6,12.3,17.8
			c4.9,2.8,10.3,4.2,17,4.6c9.1,0.4,18.4-0.4,27.4-1.8c11.6-1.8,23.4-4.5,34.8-7.9c2.1-0.4,3.2-1.8,3.1-4.1l-0.3-31.1
			C433.2,102.4,430.1,100.3,427.1,101.4z"/>
		<path class="st6" d="M328.9,117.7l0.1-1.4l-1.3,0.1l0.1-1.8l1.3-1.2l-0.1-6.8c-0.1-3.2-3.2-5.4-6.2-4.3c-8.5,3.3-17.9,6.4-27,8.2
			c-4.3,1.1-9,1.6-14.6,2.1l15.7-25.1c-16.4,2.3-32.9,4.8-49.4,7.2l-1.1,1.8c-2.1,3-5.7,9.4-6.7,11.5c-2.6,6.3-5.3,14.1-5.1,21
			c0.3,7.6,4.4,13.6,12.3,17.8c4.4,2.5,9.3,3.9,15.2,4.4l2.9-1.5l1,1.7c8.4,0.2,17-0.5,25.3-1.8c11.6-1.8,23.4-4.5,34.8-7.9
			c2.1-0.4,3.2-1.8,3.1-4.1l-0.2-20.1L328.9,117.7z"/>
		<path class="st7" d="M225.4,51l39.3-8.8l-21.3,33.3c-1.5,2.5-3.2,4.9-4.8,7.4c16.3-2.2,32.6-4.3,49-6.4l23.1-36.9
			c2.9-4.6,4.4-9.8,4.9-15c0.2-6.9-1.8-12.3-6-16.4C301,0.2,284,1.8,273.7,3.2l-50.6,8c-2.6,0.5-3.8,1.8-3.7,4.4l0.5,31.1
			C219.8,49.6,222.4,51.7,225.4,51z"/>
		<path class="st8" d="M184.9,103.7c-1.7,6.8-5.5,12.2-16.6,12.3c-5.5,0-8.5-3.2-10-8.1c-12.2,1.9-24.5,3.9-36.8,5.9
			c0.2,1.3,0.3,2.6,0.5,3.9c1.4,9.7,4.8,19.9,12.4,26.5c7.6,6.9,20,8.3,29.7,8.4c17.3,0.3,34.3-4,45.7-17.5
			c6.6-8.1,10.4-18.3,12.1-28.7c0.4-2.8,0.7-5.6,1-8.5C210.3,99.8,197.6,101.7,184.9,103.7z"/>
		<g>
			<path class="st9" d="M172.6,92c12.3-1.7,24.7-3.4,37.1-5.1c0.1-3.7,0.2-7.4,0-11l-0.5-14.3l0-19l-2.7-1.5l1.9-0.5l0.1-1.8
				l0.8-0.4l0-29c-0.1-2.4-2.1-4.5-4.5-4.5l-26.6,0.2c-2.8,0-4.1,1.3-4.2,4.1l-0.7,51.5l0,0.2c-0.1,9.7-0.2,18.6-0.5,26.4
				C172.7,89.2,172.6,90.7,172.6,92z"/>
			<path class="st9" d="M142.8,96.2c0-1.7,0.1-3.5,0.2-5.2l0.9-28.6l2.2-52.1c0.1-2.4-2.1-4.7-4.5-4.7L115,5.7
				c-2.6,0-4.1,1.3-4.2,3.9l-3.5,51.5c-0.7,11.3-1.1,22.5-0.9,33.8c0.1,2.1,0.2,4.3,0.3,6.5C118.6,99.6,130.7,97.9,142.8,96.2z"/>
		</g>
		<path class="st10" d="M10,132.8l-0.2,15.9c0.1,2.6,2.2,4.5,5.3,4.5l31.2-0.2c3.3,0,5-1.3,4.9-4.4L51,126.6
			C37.3,128.6,23.6,130.7,10,132.8z"/>
		<path class="st11" d="M55.8,107.7c7.9-2.2,15.8-5.3,22.8-9.3l0.2,0c4.9-2.9,9.1-6.6,12.6-11.6c2.1-2.8,3.9-6.1,5.5-9.6
			c4-9.6,5.1-20.2,3.1-32.3C96.6,22.8,83.2,6.2,59.8,5.4h-0.2l-5.8,0.3c-1.9,0.5-3.9,0.5-5.8,0.7C42.8,7,37.7,8.1,3.3,15.6
			C1.2,16,0.1,17.3,0,19.5v98.3C11.6,115.9,52.6,108.8,55.8,107.7z M35.2,43.1l17-3.7c3.8-0.8,6.8,0.6,9,3.1h1.4v2
			c2.4,4,3.4,9.6,2.8,14c-0.7,3.7-2.3,6.7-5.1,9.1C56,71.6,50,74,44.7,75.8c-2.4,0.7-7.6,1.7-9.5,1.9V43.1z"/>
	</g>
</g>
</svg>
