<svg xmlns="http://www.w3.org/2000/svg" viewBox="0 0 223 48">
<path fill="#313131" d="M63.76,45.97H56V30.34h6.26c2.8,0,4.52,1.64,4.52,3.93c0,1.33-0.64,2.3-1.47,3.13c2.41,0.36,4.18,1.61,4.18,4.05
	C69.5,44.09,67.14,45.97,63.76,45.97z M61.9,32.09h-3.8v5.24h4.82c1.11-0.86,1.66-1.61,1.66-2.88
	C64.59,33.06,63.65,32.09,61.9,32.09z M63.73,38.88h-5.63v5.35h5.65c2.25,0,3.46-0.94,3.46-2.77
	C67.22,40.07,66.28,38.88,63.73,38.88z M88.8,46.5c-0.94-0.28-1.77-1.16-2.13-2c-1.86,1.08-3.77,1.86-5.88,1.86
	c-2.83,0-4.99-1.44-4.99-3.96c0-2.16,1.77-3.93,4.99-3.93h5.74v-3.33c0-2.11-1.72-3.49-3.93-3.49c-2.19,0-3.88,1.88-4.49,3.3
	l-1.61-1.03c1.27-2.58,3.6-3.94,6.54-3.94c3.19,0,5.6,1.8,5.6,5.15v7.98c0,0.8,0.69,1.63,1.64,2.19L88.8,46.5z M86.53,40.04h-5.65
	c-2.08,0-2.8,1.19-2.8,2.41c0,1.14,1.16,2.33,2.8,2.33c1.91,0,3.82-0.83,5.65-1.99V40.04z M104.07,32.09v13.88H102V32.09h-6.71
	v-1.75h15.49v1.75H104.07z M125.52,32.09v13.88h-2.08V32.09h-6.71v-1.75h15.49v1.75H125.52z M139.12,45.97V30.34h2.08v13.88h10.7
	v1.75H139.12z M165.27,46.33c-4.05,0-7.76-2.69-7.76-8.04c0-4.79,3.27-8.34,7.65-8.34c3.46,0,6.84,2.47,6.84,6.9v0.69h-12.25
	c0,0.25-0.03,0.5-0.03,0.75c0,4.18,2.44,6.29,5.71,6.29c2,0,3.82-0.72,5.54-1.97l1.02,1.39C169.98,45.53,167.65,46.33,165.27,46.33z
	 M165.13,31.7c-2.74,0-4.54,1.61-5.15,4.3h9.87C169.45,33.31,167.62,31.7,165.13,31.7z M11,48c6.08,0,11-4.92,11-11s-4.92-11-11-11
	C4.92,26,0,30.92,0,37S4.92,48,11,48z M26,11c0,6.08,4.92,11,11,11c6.07,0,11-4.92,11-11S43.08,0,37,0C30.92,0,26,4.92,26,11z"/>
<path fill="#04AF84" d="M69.6,22.92l-4.72-5.71h-1.92v5.71h-6.93V2.13h10.65c3.43,0,5.42,0.66,6.86,1.81
	c1.59,1.25,2.54,3.06,2.54,5.35c0,2.95-1.07,4.72-3.8,6.19l6.34,7.45H69.6z M67.46,7.62c-0.63-0.29-1.66-0.41-2.58-0.41h-1.92V12
	h1.77c1.77,0,2.69-0.18,3.28-0.63c0.48-0.37,0.74-0.96,0.74-1.88C68.75,8.65,68.27,7.99,67.46,7.62z M90.56,23.4
	c-6.82,0-11.32-3.8-11.32-10.69c0-6.19,4.05-11.1,10.95-11.1c6.82,0,10.73,4.39,10.73,13.12v0.04H86.36
	c0.59,2.06,2.47,2.88,5.05,2.88c2.36,0,5.05-0.7,7.89-1.95l1.77,5.12C98.6,22.4,94.62,23.4,90.56,23.4z M90.08,6.7
	c-2.06,0-3.06,1.51-3.5,3.28h6.64C93.22,8.17,92.22,6.7,90.08,6.7z M109.09,2.13l4.83,12.31l4.87-12.31h7.37l-8.96,20.79h-6.93
	l-8.96-20.79H109.09z M137.78,23.4c-6.82,0-11.32-3.8-11.32-10.69c0-6.19,4.05-11.1,10.95-11.1c6.82,0,10.73,4.39,10.73,13.12v0.04
	h-14.56c0.59,2.06,2.47,2.88,5.05,2.88c2.36,0,5.05-0.7,7.89-1.95l1.77,5.12C145.82,22.4,141.84,23.4,137.78,23.4z M137.3,6.7
	c-2.06,0-3.06,1.51-3.5,3.28h6.64C140.44,8.17,139.44,6.7,137.3,6.7z M165.66,22.92l-4.72-5.71h-1.92v5.71h-6.93V2.13h10.65
	c3.43,0,5.42,0.66,6.86,1.81c1.58,1.25,2.54,3.06,2.54,5.35c0,2.95-1.07,4.72-3.8,6.19l6.34,7.45H165.66z M163.53,7.62
	c-0.63-0.29-1.66-0.41-2.58-0.41h-1.92V12h1.77c1.77,0,2.69-0.18,3.28-0.63c0.48-0.37,0.74-0.96,0.74-1.88
	C164.82,8.65,164.34,7.99,163.53,7.62z M186.65,23.54c-4.72,0-8.51-1.03-11.54-3.91l3.35-4.5c2.14,1.95,5.27,3.17,8.18,3.17
	c2.1,0,3.39-0.55,3.39-1.44c0-0.55-0.48-1.03-2.1-1.29c-1.51-0.26-3.91-0.55-5.82-1.03c-3.32-0.77-5.64-2.69-5.64-6.16
	c0-3.8,3.21-6.89,9.58-6.89c4.02,0,7.63,0.88,10.91,3.17l-2.84,4.9c-2.69-1.81-5.09-2.84-8.07-2.84c-1.84,0-2.43,0.66-2.43,1.4
	c0,0.55,0.52,1.03,2.1,1.29c1.44,0.22,3.13,0.44,4.75,0.81c3.46,0.77,6.78,2.43,6.78,6.27C197.27,19.71,194.51,23.54,186.65,23.54z
	 M200.12,22.92v-5.16h7.56V7.29h-6.52V2.13h19.98v5.16h-6.49v10.47h7.52v5.16H200.12z M11,6.47c2.5,0,4.53,2.03,4.53,4.53
	c0,2.5-2.03,4.53-4.53,4.53c-2.5,0-4.53-2.03-4.53-4.53C6.47,8.5,8.5,6.47,11,6.47 M11,0C4.92,0,0,4.92,0,11s4.92,11,11,11
	c6.08,0,11-4.92,11-11S17.08,0,11,0L11,0z M37,32.47c2.5,0,4.53,2.03,4.53,4.53S39.5,41.53,37,41.53c-2.5,0-4.53-2.03-4.53-4.53
	S34.5,32.47,37,32.47 M37,26c-6.08,0-11,4.92-11,11s4.92,11,11,11c6.07,0,11-4.92,11-11S43.08,26,37,26L37,26z"/>
</svg>
