<?xml version="1.0" standalone="no"?>
<!DOCTYPE svg PUBLIC "-//W3C//DTD SVG 20010904//EN"
 "http://www.w3.org/TR/2001/REC-SVG-20010904/DTD/svg10.dtd">
<svg version="1.0" xmlns="http://www.w3.org/2000/svg"
 width="944.000000pt" height="944.000000pt" viewBox="0 0 944.000000 944.000000"
 preserveAspectRatio="xMidYMid meet">
<metadata>
Created by potrace 1.11, written by Peter Selinger 2001-2013
</metadata>
<g transform="translate(0.000000,944.000000) scale(0.100000,-0.100000)"
fill="#000000" stroke="none">
<path d="M1433 6308 c1 -1723 5 -3144 9 -3158 4 -14 9 -45 12 -70 11 -107 63
-316 106 -425 91 -233 150 -349 275 -540 135 -207 283 -384 488 -584 104 -101
120 -116 202 -186 38 -33 82 -71 97 -84 45 -39 239 -189 293 -226 28 -20 77
-55 110 -79 33 -25 65 -45 72 -45 6 -1 13 -5 15 -9 2 -7 67 -52 140 -97 226
-140 387 -235 397 -235 5 0 11 -3 13 -7 1 -5 19 -16 38 -27 19 -10 55 -30 80
-44 57 -33 139 -76 260 -138 52 -27 97 -52 98 -56 2 -5 12 -8 23 -8 10 0 19
-4 19 -10 0 -5 4 -10 9 -10 5 0 125 -56 266 -125 141 -69 261 -125 266 -125 5
0 168 80 362 179 441 223 570 292 737 391 30 18 64 36 75 41 11 5 32 17 47 27
15 9 72 43 125 76 54 32 169 106 257 165 87 58 165 111 174 116 19 12 13 8
200 151 85 65 197 156 250 203 106 93 333 318 399 396 23 28 52 61 64 75 12
14 47 59 77 100 31 41 60 80 64 85 94 123 235 382 298 545 17 47 36 94 40 105
17 43 64 212 74 270 3 17 8 41 11 55 2 13 7 42 11 65 3 22 9 58 12 80 3 22 7
1447 9 3168 l3 3127 -3290 0 -3290 0 3 -3132z m3203 2781 c1 -14 4 -31 8 -37
3 -6 2 -13 -3 -16 -4 -3 -5 -23 -1 -44 3 -21 4 -47 0 -58 -4 -10 -4 -31 1 -46
4 -16 4 -28 -1 -28 -4 0 -4 -15 0 -34 4 -19 4 -40 0 -46 -4 -7 -4 -26 0 -41 5
-16 6 -29 2 -29 -4 0 -6 -33 -4 -72 4 -116 3 -191 -2 -196 -3 -2 -1 -13 4 -23
6 -10 6 -20 1 -23 -4 -3 -5 -23 -1 -44 3 -21 3 -47 0 -58 -4 -10 -4 -29 1 -41
5 -12 4 -25 0 -28 -5 -3 -6 -20 -2 -38 5 -18 5 -41 1 -52 -4 -11 -4 -30 1 -41
4 -12 5 -24 2 -28 -3 -3 -5 -36 -4 -73 2 -131 1 -186 -3 -191 -3 -2 -1 -13 4
-23 6 -10 6 -20 1 -23 -4 -3 -5 -23 -1 -44 3 -21 4 -47 0 -58 -4 -10 -4 -31 1
-46 4 -16 4 -28 -1 -28 -4 0 -4 -15 0 -34 4 -19 4 -40 0 -46 -4 -7 -4 -26 0
-41 5 -16 6 -29 2 -29 -4 0 -6 -33 -4 -72 4 -116 3 -191 -2 -196 -3 -2 -1 -13
4 -23 6 -10 6 -20 1 -23 -4 -3 -5 -23 -1 -44 3 -21 4 -47 0 -58 -4 -10 -4 -31
1 -46 4 -16 4 -28 -1 -28 -4 0 -5 -15 -1 -33 5 -18 5 -41 1 -52 -4 -11 -4 -30
1 -41 4 -12 5 -24 2 -28 -3 -3 -5 -36 -4 -73 2 -131 1 -186 -3 -191 -3 -2 -1
-13 4 -23 6 -10 6 -20 1 -23 -4 -3 -5 -23 -1 -44 3 -21 3 -47 0 -58 -4 -10 -4
-29 1 -41 5 -12 4 -25 0 -28 -5 -3 -5 -20 -1 -39 4 -19 4 -40 0 -46 -4 -7 -4
-26 0 -41 5 -16 6 -29 2 -29 -4 0 -6 -33 -4 -72 4 -116 3 -191 -2 -196 -3 -2
-1 -13 4 -23 6 -10 6 -20 1 -23 -4 -3 -5 -23 -1 -44 3 -21 4 -47 0 -58 -4 -10
-4 -31 1 -46 4 -16 4 -28 -1 -28 -4 0 -5 -15 -1 -33 5 -18 5 -41 1 -52 -4 -11
-4 -30 1 -41 4 -12 5 -24 2 -28 -3 -3 -5 -36 -4 -73 2 -131 1 -186 -3 -191 -3
-2 -1 -13 4 -23 6 -10 6 -20 1 -23 -4 -3 -5 -23 -1 -44 3 -21 4 -47 0 -58 -4
-10 -4 -31 1 -46 4 -16 4 -28 -1 -28 -4 0 -4 -15 0 -34 4 -19 4 -40 0 -46 -4
-7 -4 -26 0 -41 5 -16 6 -29 2 -29 -4 0 -6 -33 -4 -72 4 -116 3 -191 -2 -196
-3 -2 -1 -13 4 -23 6 -10 6 -20 1 -23 -4 -3 -5 -23 -1 -44 3 -21 3 -47 0 -58
-4 -10 -4 -29 1 -40 4 -12 5 -25 2 -28 -5 -5 -7 -147 -2 -173 1 -4 0 -12 -1
-18 -2 -13 -2 -87 0 -100 1 -5 2 -14 0 -20 -2 -12 -1 -169 1 -181 1 -5 0 -13
-1 -19 -2 -13 -2 -87 0 -100 1 -5 2 -13 1 -17 -5 -19 -3 -220 2 -224 2 -3 1
-21 -3 -40 -4 -19 -4 -36 1 -39 4 -3 4 -16 0 -28 -5 -12 -5 -32 0 -44 5 -13 5
-33 0 -45 -4 -13 -5 -35 0 -50 4 -16 5 -28 1 -28 -4 0 -6 -30 -4 -67 4 -107 3
-185 -2 -191 -3 -2 -1 -13 4 -23 6 -10 6 -20 1 -23 -4 -3 -5 -23 -1 -44 3 -21
4 -47 0 -58 -4 -10 -4 -31 1 -46 4 -16 5 -28 1 -28 -8 0 -7 -199 1 -206 2 -3
1 -21 -3 -40 -4 -19 -4 -36 1 -39 4 -3 5 -16 0 -28 -5 -12 -5 -31 -1 -42 4
-11 4 -31 0 -45 -3 -14 -3 -42 0 -62 4 -21 5 -40 2 -43 -5 -5 -6 -77 -2 -100
1 -5 2 -14 0 -20 -2 -12 -1 -169 1 -181 1 -5 0 -13 -1 -19 -2 -13 -2 -87 0
-100 1 -5 2 -13 1 -17 -5 -19 -3 -220 2 -224 2 -3 1 -21 -3 -40 -4 -19 -4 -36
1 -39 4 -3 4 -16 0 -28 -5 -12 -5 -32 0 -45 5 -12 5 -32 0 -45 -5 -12 -5 -31
-1 -42 4 -11 5 -24 2 -29 -2 -4 -4 -38 -3 -75 2 -129 1 -184 -3 -189 -3 -2 -1
-13 4 -23 6 -10 6 -20 1 -23 -4 -3 -5 -23 -1 -44 3 -21 4 -47 0 -58 -4 -10 -4
-31 1 -46 4 -16 5 -28 1 -28 -8 0 -7 -199 1 -206 2 -3 1 -21 -3 -40 -4 -19 -4
-36 1 -39 4 -3 4 -16 0 -28 -5 -12 -5 -32 0 -44 4 -12 5 -25 0 -27 -4 -3 -6
-19 -3 -36 2 -17 0 -30 -6 -30 -12 0 -480 236 -498 251 -6 5 -13 7 -16 4 -3
-3 -11 1 -18 10 -7 8 -16 15 -20 15 -4 0 -56 27 -115 60 -59 33 -111 60 -116
60 -5 0 -9 5 -9 10 0 6 -5 10 -11 10 -7 0 -63 31 -125 70 -63 38 -119 70 -124
70 -6 0 -10 5 -10 10 0 6 -5 10 -11 10 -6 0 -29 13 -52 29 -23 16 -89 59 -147
97 -58 37 -107 70 -110 73 -3 4 -26 20 -52 36 -27 17 -48 33 -48 38 0 4 -4 7
-10 7 -13 0 -295 214 -330 250 -3 3 -39 34 -80 70 -171 147 -416 406 -525 555
-16 22 -32 42 -35 45 -37 31 -228 375 -283 510 -49 119 -92 274 -112 405 -3
17 -8 50 -12 75 -7 48 -16 5907 -9 5926 3 9 365 11 1443 10 l1438 -1 1 -26z
m1004 24 c0 -8 -827 -833 -835 -833 -3 0 -5 6 -2 13 2 6 0 22 -4 34 -5 12 -5
24 -1 27 6 3 7 61 2 76 -1 3 -1 10 0 15 4 23 3 92 -2 100 -3 6 -2 19 1 29 4
11 4 39 1 62 -4 24 -4 46 -1 49 2 3 4 27 2 53 -2 57 -2 52 0 132 1 36 0 70 -1
75 -1 6 -1 15 0 20 4 22 1 95 -5 105 -3 5 -2 10 3 10 6 0 8 9 5 19 -5 18 8 19
416 19 232 0 421 -3 421 -5z m571 -396 c-220 -221 -627 -628 -904 -905 l-503
-502 -2 36 c-2 20 -3 39 -4 43 0 3 1 11 2 16 1 6 1 30 1 55 -2 53 -2 46 -2
135 1 78 1 105 4 153 1 19 -1 36 -5 39 -5 2 -6 9 -2 14 8 13 9 97 2 105 -4 3
-3 16 1 28 4 11 4 39 1 61 l-6 40 539 541 540 541 370 1 370 0 -402 -401z
m1359 398 c0 -3 -2736 -2739 -2753 -2754 -15 -12 -17 -11 -17 10 0 13 0 31 0
39 -1 8 1 32 2 53 2 21 0 41 -4 44 -5 2 -6 9 -2 14 8 13 9 92 2 104 -3 6 -2
19 1 29 4 11 4 39 1 62 -4 24 -4 46 -1 49 2 3 4 27 2 53 -2 58 -2 53 0 133 1
36 -1 71 -5 77 -3 6 -2 13 3 17 6 3 8 12 5 20 -4 8 364 383 1014 1033 l1020
1020 366 0 c201 -1 366 -2 366 -3z m120 -480 l0 -366 -1439 -1439 c-791 -792
-1441 -1440 -1443 -1440 -3 0 -5 15 -6 34 -1 19 -2 38 -3 42 -1 5 0 14 1 19 1
6 1 30 1 55 -2 53 -2 46 -2 135 1 78 1 105 4 153 1 19 -1 36 -5 39 -5 2 -6 9
-2 14 8 13 9 97 2 105 -4 3 -3 16 1 28 4 11 4 38 1 59 l-5 37 1445 1445 c794
795 1446 1445 1447 1445 2 0 3 -164 3 -365z m0 -962 l0 -368 -1444 -1444
c-1237 -1237 -1444 -1440 -1445 -1417 -2 44 -2 50 1 94 2 24 0 46 -4 48 -5 3
-6 10 -2 15 8 13 9 92 2 104 -3 6 -2 19 1 29 4 11 4 39 1 62 -4 24 -4 46 -1
49 2 3 4 27 2 53 -2 58 -2 53 0 133 1 36 -1 71 -5 78 -4 6 -3 11 3 11 6 0 8 7
4 16 -4 11 404 425 1438 1460 794 794 1445 1444 1447 1444 1 0 2 -165 2 -367z
m0 -967 l0 -363 -1441 -1442 c-793 -792 -1443 -1441 -1444 -1441 -7 0 -10 72
-3 76 5 3 6 9 3 14 -3 5 -6 29 -5 52 0 24 0 72 1 108 0 36 0 70 -1 75 -1 6 -1
15 0 20 2 13 2 87 0 100 -1 6 -2 14 0 20 5 28 4 95 -2 95 -4 0 -3 12 1 28 5
15 5 37 0 49 -4 12 -5 25 0 27 4 3 6 18 3 34 -4 28 93 126 1436 1471 792 792
1443 1441 1446 1441 3 0 6 -164 6 -364z m-1439 -2767 c-791 -791 -1441 -1439
-1444 -1439 -3 0 -7 16 -9 35 -2 19 -1 35 2 35 3 0 4 17 2 38 -1 20 -3 42 -3
47 1 28 2 250 2 283 0 9 0 44 0 77 0 33 0 66 0 73 -1 18 -1 41 0 93 l1 46
1442 1443 1441 1442 3 -367 2 -366 -1439 -1440z m-3 -966 l-1443 -1443 -5 38
c-3 20 -3 46 1 57 3 11 3 32 -2 47 -4 16 -5 28 -1 28 6 0 7 145 1 168 -1 4 0
12 1 17 4 23 3 92 -2 100 -3 6 -2 19 2 29 3 11 4 37 0 58 -4 20 -5 40 -2 43 8
8 8 66 0 71 -4 3 -4 15 1 27 4 12 6 28 3 35 -2 8 591 609 1439 1458 l1444
1444 3 -367 2 -367 -1442 -1443z m1442 844 l0 -363 -1409 -1410 c-775 -775
-1426 -1426 -1448 -1446 l-38 -37 2 55 c1 31 4 58 6 61 3 2 1 18 -3 34 -5 16
-6 29 -2 29 6 0 7 87 2 195 -1 17 -1 51 -1 78 0 26 0 54 0 62 0 8 0 35 0 60 0
25 0 52 0 60 0 8 1 36 1 61 l2 45 1436 1439 c791 791 1440 1439 1445 1439 4 1
7 -162 7 -362z m-25 -674 c-3 -32 -8 -67 -11 -78 -2 -11 -6 -31 -8 -45 -7 -37
-13 -60 -26 -110 -7 -25 -14 -53 -16 -63 -22 -119 -184 -454 -289 -600 -240
-334 -502 -598 -854 -860 -53 -40 -97 -75 -99 -79 -2 -5 -9 -8 -16 -8 -7 0
-21 -8 -32 -17 -22 -20 -46 -37 -147 -106 -38 -26 -71 -47 -73 -47 -3 0 -20
-11 -38 -25 -18 -14 -38 -25 -44 -25 -6 0 -12 -3 -14 -8 -4 -9 -136 -92 -148
-92 -4 0 -10 -3 -12 -8 -4 -10 -165 -102 -178 -102 -5 0 -10 -3 -10 -8 0 -4
-21 -18 -47 -32 -27 -13 -77 -41 -113 -61 -165 -92 -531 -282 -534 -277 -1 2
29 33 66 69 38 36 68 63 68 60 0 -3 5 1 10 9 10 17 2561 2570 2568 2570 2 0 1
-26 -3 -57z"/>
</g>
</svg>
