<svg xmlns="http://www.w3.org/2000/svg" xmlns:xlink="http://www.w3.org/1999/xlink" viewBox="0 0 114 39"><style>.st0{fill:#343434;}.st1{fill:#4596FF;}</style><path class="st0" d="M0,1v37h37V1H0z M9,37H1v-8h8V37z M9,19H1v-8h8V19z M9,10H1V2h8V10z M27,28h-8v-8h8V28z M27,10h-8V2h8V10z M36,37h-8v-8h8V37z M36,28h-8v-8h8V28z M36,10h-8V2h8V10z M47.7,11.8c0.1,0.9,0.5,1.6,1.3,2.2c0.8,0.6,1.7,0.8,2.9,0.8 c1.1,0,2-0.3,2.8-0.8c0.7-0.5,1.1-1.2,1.1-2.1c0-0.7-0.3-1.3-0.8-1.7s-1.3-0.8-2.4-1.1l-1.9-0.5c-1.4-0.4-2.4-0.8-3-1.4 s-1-1.4-1-2.4c0-1.2,0.5-2.2,1.5-3s2.2-1.2,3.7-1.2c1.4,0,2.7,0.4,3.6,1.2c1,0.8,1.5,1.7,1.5,2.9h-1.4c-0.1-0.8-0.4-1.5-1.1-2 c-0.7-0.5-1.6-0.8-2.6-0.8S50,2.2,49.3,2.7c-0.7,0.5-1,1.2-1,2c0,0.6,0.2,1.2,0.7,1.6c0.5,0.4,1.3,0.7,2.4,1L53,7.7 c1.5,0.4,2.6,0.9,3.3,1.5c0.7,0.6,1,1.5,1,2.5c0,1.3-0.5,2.4-1.5,3.1c-1,0.8-2.3,1.2-3.9,1.2c-1.6,0-2.8-0.4-3.9-1.2 c-1-0.8-1.6-1.8-1.6-3.1h1.3V11.8z M68.1,15.8h-1.3v-2.1l0,0c-0.3,0.7-0.8,1.2-1.5,1.6c-0.7,0.4-1.5,0.6-2.3,0.6 c-1.2,0-2.2-0.4-2.9-1.1c-0.7-0.7-1.1-1.7-1.1-3V4.7h1.4v7c0,1,0.3,1.8,0.8,2.3s1.3,0.8,2.2,0.8c1,0,1.8-0.3,2.4-1 c0.6-0.6,0.9-1.5,0.9-2.5V4.7h1.4V15.8z M71.2,14.4c-0.9-1.1-1.3-2.4-1.3-4.1s0.4-3.1,1.3-4.1s2-1.6,3.4-1.6c0.9,0,1.7,0.2,2.4,0.7 c0.7,0.4,1.2,1,1.5,1.8l0,0V0.2h1.4v15.6h-1.3v-2.4l0,0c-0.3,0.8-0.8,1.4-1.5,1.8c-0.7,0.5-1.5,0.7-2.4,0.7 C73.3,15.9,72.1,15.4,71.2,14.4z M72.3,7c-0.7,0.8-1,1.9-1,3.2s0.3,2.4,1,3.2c0.7,0.8,1.5,1.2,2.6,1.2s1.9-0.4,2.6-1.2s1-1.9,1-3.2 s-0.3-2.4-1-3.2s-1.6-1.2-2.6-1.2C73.8,5.8,73,6.2,72.3,7z M83.2,14.4c-0.9-1-1.4-2.4-1.4-4.2c0-1.7,0.5-3.1,1.4-4.2 c0.9-1,2.1-1.5,3.7-1.5c1.5,0,2.8,0.5,3.7,1.5c0.9,1,1.4,2.4,1.4,4.2s-0.5,3.1-1.4,4.2c-0.9,1-2.1,1.6-3.7,1.6 C85.3,15.9,84.1,15.4,83.2,14.4z M89.5,13.5c0.7-0.8,1-1.9,1-3.3s-0.3-2.5-1-3.3s-1.6-1.2-2.7-1.2s-2,0.4-2.7,1.2s-1,1.9-1,3.3 s0.3,2.5,1,3.3s1.5,1.2,2.7,1.2S88.9,14.3,89.5,13.5z M100.7,4.7h1.7l-5,4.8l5.1,6.3h-1.6l-4.5-5.5l-1.3,1.1v4.3h-1.4V0.2h1.4V10 L100.7,4.7z M112.9,15.8h-1.3v-2.1l0,0c-0.3,0.7-0.8,1.2-1.5,1.6c-0.7,0.4-1.5,0.6-2.3,0.6c-1.2,0-2.2-0.4-2.9-1.1 c-0.7-0.7-1.1-1.7-1.1-3V4.7h1.4v7c0,1,0.3,1.8,0.8,2.3s1.3,0.8,2.2,0.8c1,0,1.8-0.3,2.4-1c0.6-0.6,0.9-1.5,0.9-2.5V4.7h1.4V15.8z M51,37.7V24h-5v-1.3h11.4V24h-5v13.7H51z M56.8,36.9c-0.7-0.6-1-1.4-1-2.3c0-1.9,1.4-3,4.1-3.2l3.4-0.2v-1c0-0.8-0.2-1.4-0.7-1.9 c-0.5-0.4-1.2-0.7-2.1-0.7c-0.8,0-1.4,0.2-1.9,0.6s-0.8,0.9-1,1.6h-1.3c0.1-1,0.5-1.8,1.3-2.4s1.8-0.9,2.9-0.9c1.3,0,2.3,0.3,3.1,1 c0.8,0.7,1.1,1.6,1.1,2.7v7.6h-1.3v-2.1l0,0c-0.3,0.7-0.8,1.2-1.5,1.6c-0.7,0.4-1.5,0.6-2.3,0.6C58.4,37.8,57.5,37.5,56.8,36.9z M62.3,35.7c0.7-0.6,1-1.3,1-2.2v-1.2L60,32.5c-1.9,0.1-2.9,0.8-2.9,2.1c0,0.6,0.2,1.1,0.7,1.5s1.1,0.6,1.9,0.6 C60.8,36.6,61.7,36.3,62.3,35.7z M69.9,37.2c-0.7-0.4-1.2-1.1-1.5-1.8l0,0v2.4h-1.3V22.1h1.4v6.7l0,0c0.3-0.8,0.8-1.3,1.5-1.8 c0.7-0.4,1.5-0.6,2.3-0.6c1.4,0,2.5,0.5,3.4,1.6c0.9,1,1.3,2.4,1.3,4.1c0,1.7-0.4,3.1-1.3,4.1s-2,1.6-3.4,1.6 C71.4,37.8,70.6,37.6,69.9,37.2z M69.4,28.9c-0.7,0.8-1,1.9-1,3.2s0.3,2.4,1,3.2s1.5,1.2,2.6,1.2s1.9-0.4,2.6-1.2s1-1.9,1-3.2 s-0.3-2.4-1-3.2c-0.6-0.8-1.5-1.2-2.6-1.2C71,27.6,70.1,28.1,69.4,28.9z M79.1,22.1h1.4v15.6h-1.4V22.1z M92.2,34.5 c-0.2,1-0.7,1.7-1.5,2.4c-0.8,0.6-1.9,0.9-3.1,0.9c-1.5,0-2.8-0.5-3.7-1.5c-0.9-1-1.4-2.4-1.4-4.2c0-1.7,0.5-3.1,1.4-4.2 c0.9-1,2.1-1.6,3.6-1.6s2.6,0.5,3.5,1.5s1.3,2.3,1.3,4v0.6H84v0.1c0,1.3,0.3,2.3,1,3s1.5,1.1,2.7,1.1c0.8,0,1.5-0.2,2.1-0.6 c0.6-0.4,0.9-0.9,1.1-1.5H92.2z M85.1,28.7c-0.6,0.7-1,1.6-1.1,2.7h7c0-1.1-0.3-2-1-2.7c-0.6-0.7-1.4-1-2.5-1 C86.5,27.6,85.7,28,85.1,28.7z"/><path class="st1" d="M18,10h-8V2h8V10z M18,11h-8v8h8V11z M27,11h-8v8h8V11z M18,20h-8v8h8V20z M18,29h-8v8h8V29z M27,29h-8v8h8V29z"/></svg>