<svg xmlns="http://www.w3.org/2000/svg" viewBox="0 0 120 48">
<path class="blue" fill="#3289D8" d="M81.45,23.83c0-0.48,0.05-0.56,0.21-0.59l0.91-0.19c0.27-0.05,0.32-0.11,0.32-0.37v-7.04
	c0-0.27-0.05-0.29-0.32-0.35l-0.91-0.16c-0.16-0.03-0.21-0.08-0.21-0.51c0-0.4,0.05-0.46,0.21-0.51c2.2-0.86,4.58-2.22,6.72-3.7
	c0.08-0.05,0.13-0.08,0.21-0.08c0.19,0,0.7,0.21,0.7,0.4c0,0.46-0.21,2.28-0.21,5.57v6.37c0,0.27,0.05,0.32,0.32,0.37l0.91,0.19
	c0.16,0.03,0.21,0.11,0.21,0.59s-0.05,0.56-0.21,0.56c-0.62,0-2.36-0.19-4.31-0.19s-3.75,0.19-4.34,0.19
	C81.5,24.39,81.45,24.31,81.45,23.83z M44.54,23.83c0-0.48,0.05-0.56,0.21-0.59l0.91-0.19c0.27-0.05,0.32-0.11,0.32-0.37v-7.04
	c0-0.27-0.05-0.29-0.32-0.35l-0.91-0.16c-0.16-0.03-0.21-0.08-0.21-0.51c0-0.4,0.05-0.46,0.21-0.51c2.2-0.86,4.58-2.22,6.72-3.7
	c0.08-0.05,0.13-0.08,0.21-0.08c0.19,0,0.7,0.21,0.7,0.4c0,0.46-0.21,2.28-0.21,5.57v6.37c0,0.27,0.05,0.32,0.32,0.37l0.91,0.19
	c0.16,0.03,0.21,0.11,0.21,0.59s-0.05,0.56-0.21,0.56c-0.62,0-2.36-0.19-4.31-0.19c-1.96,0-3.75,0.19-4.34,0.19
	C44.59,24.39,44.54,24.31,44.54,23.83z M1.2,16.87c0.62,0,0.7,0.05,0.78,0.27c0.7,1.85,1.74,4.23,2.6,5.09
	c0.75,0.75,1.53,1.23,2.81,1.23c1.93,0,2.87-0.99,2.87-2.49c0-1.45-0.56-2.44-3.51-3.51c-4.74-1.71-6.37-3.62-6.37-6.8
	c0-3.7,3.94-6.05,10.5-6.05c1.1,0,2.14,0.08,3.35,0.32c0.54,0.11,0.59,0.16,0.59,0.7v4.77c0,0.21-0.11,0.27-0.72,0.27
	c-0.62,0-0.7-0.05-0.78-0.27c-0.48-1.29-0.96-2.87-1.66-3.56c-0.75-0.75-1.45-1.04-2.46-1.04c-1.37,0-2.36,0.75-2.36,2.25
	c0,1.61,0.67,2.46,3.13,3.4c4.66,1.77,6.4,3.67,6.4,6.51c0,3.88-3.46,6.7-9.16,6.7c-2.49,0-4.58-0.29-6.51-0.8
	C0.15,23.7,0.1,23.62,0.1,23.08c0-1.69,0.27-5.3,0.37-5.95C0.5,16.92,0.58,16.87,1.2,16.87z M26.05,10.49
	c4.66,0,7.87,2.62,7.87,6.96c0,4.55-3.46,7.18-8.41,7.18c-4.66,0-7.87-2.62-7.87-6.96C17.64,13.12,21.1,10.49,26.05,10.49z
	 M26.27,23.24c0.32,0.32,0.56,0.4,0.83,0.4c0.54,0,0.99-0.35,0.99-1.77c0-2.81-1.63-8.84-2.79-9.99c-0.32-0.32-0.56-0.4-0.83-0.4
	c-0.54,0-0.99,0.35-0.99,1.77C23.48,16.06,25.12,22.09,26.27,23.24z M34.52,23.83c0-0.48,0.05-0.56,0.21-0.59l0.91-0.19
	c0.27-0.05,0.32-0.11,0.32-0.37V8.89c0-0.27-0.05-0.29-0.32-0.35l-0.91-0.16c-0.16-0.03-0.21-0.08-0.21-0.51
	c0-0.4,0.05-0.46,0.21-0.51c2.2-0.86,4.58-2.22,6.72-3.7c0.08-0.05,0.13-0.08,0.21-0.08c0.19,0,0.7,0.21,0.7,0.4
	c0,0.46-0.21,2.28-0.21,5.57v13.12c0,0.27,0.05,0.32,0.32,0.37l0.91,0.19c0.16,0.03,0.21,0.11,0.21,0.59s-0.05,0.56-0.21,0.56
	c-0.62,0-2.36-0.19-4.31-0.19s-3.72,0.19-4.34,0.19C34.57,24.39,34.52,24.31,34.52,23.83z M61.6,12.31v5.3
	c0,2.49,0.67,3.11,1.82,3.11c0.35,0,0.54-0.16,0.67-0.16c0.29,0,0.75,0.43,0.64,0.7c-0.67,1.69-2.54,3.37-5.04,3.37
	c-2.81,0-4.29-1.79-4.29-4.69v-7.34c0-0.27-0.03-0.29-0.32-0.35l-0.96-0.13c-0.19-0.03-0.21-0.08-0.21-0.54
	c0-0.46,0.05-0.56,0.21-0.59c2.81-0.67,4.34-1.61,6.08-3.43c0.16-0.16,0.19-0.21,0.62-0.21c0.43,0,0.51,0.03,0.54,0.21
	c0.11,0.78,0.19,1.96,0.21,3.13l3.03-0.03c0.27,0,0.38,0.13,0.38,0.86c0,0.72-0.11,0.8-0.38,0.8C63.66,12.34,62.51,12.34,61.6,12.31
	z M73.41,21.23c-0.86,2.14-2.49,3.4-4.45,3.4c-2.06,0-3.48-1.66-3.48-3.75c0-1.63,0.51-2.57,1.9-3.32c1.26-0.67,3.27-1.26,5.81-1.82
	v-0.86c0-1.93-0.59-3.11-1.61-3.11c-0.27,0-0.37,0.08-0.43,0.43l-0.19,1.29c-0.27,1.93-1.39,2.84-2.89,2.84
	c-0.83,0-1.58-0.51-1.58-1.5c0-1.71,3.32-4.34,7.42-4.34c3.64,0,5.36,1.45,5.36,4.04v4.93c0,2.14,0.43,2.2,1.15,1.71
	c0.08-0.05,0.11-0.08,0.16-0.08c0.24,0,0.64,0.59,0.64,0.75c0,0.13-0.11,0.24-0.27,0.4l-0.11,0.11c-1.61,1.61-2.76,2.28-4.07,2.28
	C75.21,24.63,74.08,23.56,73.41,21.23z M73.2,20.83v-1.9c0-0.59-0.24-1.02-0.56-1.34c-0.35-0.35-0.78-0.51-1.04-0.51
	c-0.54,0-0.78,0.32-0.78,1.13c0,1.5,1.02,2.81,1.9,2.81C72.98,21.02,73.12,20.91,73.2,20.83z M105.18,13.17
	c0,2.54-1.47,3.8-2.73,3.8c-0.48,0-0.88-0.16-1.47-0.56c-0.64-0.46-1.18-0.7-1.53-0.7c-0.13,0-0.29,0.03-0.35,0.08v6.91
	c0,0.27,0.05,0.32,0.32,0.35l1.71,0.19c0.16,0.03,0.21,0.11,0.21,0.59s-0.05,0.56-0.21,0.56c-0.62,0-2.36-0.19-5.12-0.19
	c-1.96,0-3.72,0.19-4.34,0.19c-0.16,0-0.21-0.05-0.21-0.56c0-0.51,0.05-0.56,0.21-0.59l0.91-0.19c0.27-0.05,0.32-0.08,0.32-0.35
	v-7.07c0-0.27-0.05-0.29-0.32-0.35l-0.91-0.16c-0.16-0.03-0.21-0.08-0.21-0.51c0-0.4,0.05-0.46,0.21-0.51
	c2.2-0.86,4.29-2.17,6.43-3.7c0.08-0.05,0.13-0.08,0.21-0.08c0.19,0,0.7,0.21,0.7,0.4c0,0.43-0.11,2.6-0.11,4.34
	c0.8-2.6,2.3-4.58,3.94-4.58C104.46,10.49,105.18,11.7,105.18,13.17z M111.71,15.96c0.4,1.34,1.13,2.62,1.87,3.37
	c1.02,1.02,1.74,1.29,2.71,1.29c1.1,0,1.87-0.46,2.6-1.1c0.24-0.21,0.91,0.29,0.8,0.56c-1.1,2.73-4.13,4.55-7.02,4.55
	c-3.99,0-7.07-2.73-7.07-6.96c0-4.31,3.24-7.18,8.01-7.18c3.99,0,6.16,1.93,6.16,4.5c0,0.24,0,0.51-0.05,0.7
	c-0.03,0.11-0.13,0.19-0.29,0.19C117.31,15.98,114.25,16.04,111.71,15.96z M114.2,12.88c0-1.02-0.43-1.55-1.18-1.55
	c-0.83,0-1.66,0.75-1.66,2.36c0,0.54,0.08,1.13,0.19,1.69l0.86-0.11C113.64,15.13,114.2,14.24,114.2,12.88z"/>
<path class="red" fill="#F51648" d="M56.11,47.19c0,0.42-0.05,0.49-0.2,0.49c-0.58,0-2.57-0.16-4.67-0.16s-4.11,0.16-4.69,0.16
	c-0.15,0-0.2-0.07-0.2-0.49s0.05-0.49,0.2-0.51l1.11-0.16c0.25-0.05,0.3-0.09,0.3-0.33v-6.82h-5.58v6.82c0,0.23,0.05,0.28,0.3,0.33
	l1.11,0.16c0.15,0.02,0.2,0.09,0.2,0.51s-0.05,0.49-0.2,0.49c-0.58,0-2.57-0.16-4.67-0.16c-2.09,0-4.11,0.16-4.69,0.16
	c-0.15,0-0.2-0.07-0.2-0.49s0.05-0.49,0.2-0.51l1.11-0.16c0.25-0.05,0.3-0.09,0.3-0.33v-14.1c0-0.23-0.05-0.28-0.3-0.33l-1.11-0.16
	c-0.15-0.02-0.2-0.09-0.2-0.51c0-0.42,0.05-0.49,0.2-0.49c0.58,0,2.57,0.16,4.67,0.16s4.11-0.16,4.69-0.16c0.15,0,0.2,0.07,0.2,0.49
	c0,0.42-0.05,0.49-0.2,0.51l-1.11,0.16c-0.25,0.05-0.3,0.09-0.3,0.33v6.12h5.58v-6.12c0-0.23-0.05-0.28-0.3-0.33l-1.11-0.16
	c-0.15-0.02-0.2-0.09-0.2-0.51c0-0.42,0.05-0.49,0.2-0.49c0.58,0,2.57,0.16,4.67,0.16c2.09,0,4.11-0.16,4.69-0.16
	c0.15,0,0.2,0.07,0.2,0.49c0,0.42-0.05,0.49-0.2,0.51l-1.11,0.16c-0.25,0.05-0.3,0.09-0.3,0.33v14.1c0,0.23,0.05,0.28,0.3,0.33
	l1.11,0.16C56.06,46.7,56.11,46.77,56.11,47.19z M73.66,46.16c0,0.4-0.05,0.44-0.2,0.47c-1.51,0.28-3.53,0.72-5.42,1.23
	c-0.2,0.05-0.81-0.09-0.88-0.33c-0.23-0.77-0.45-1.86-0.5-2.51c-0.66,1.4-2.27,2.86-4.52,2.86c-2.65,0-4.29-1.56-4.29-4.07v-6.54
	c0-0.23-0.05-0.28-0.3-0.33l-0.86-0.19c-0.15-0.02-0.2-0.09-0.2-0.49c0-0.4,0.08-0.54,0.23-0.54c2.22-0.05,6.61-0.09,6.79-0.09
	c0.18,0,0.38,0.19,0.38,0.35c0,0.4-0.2,1.72-0.2,4.58v1.21c0,2.16,0.56,2.93,2.25,2.93c0.18,0,0.43-0.02,0.56-0.07v-7.37
	c0-0.23-0.05-0.28-0.3-0.33l-0.86-0.19c-0.15-0.02-0.2-0.09-0.2-0.49c0-0.4,0.08-0.54,0.23-0.54c2.22-0.05,6.61-0.09,6.79-0.09
	c0.18,0,0.38,0.19,0.38,0.35c0,0.4-0.2,1.72-0.2,4.58v4.58c0,0.23,0.05,0.28,0.3,0.33l0.86,0.19C73.61,45.7,73.66,45.77,73.66,46.16
	z M81.04,37.18v4.61c0,2.16,0.63,2.7,1.72,2.7c0.33,0,0.5-0.14,0.63-0.14c0.28,0,0.71,0.37,0.61,0.6c-0.63,1.47-2.4,2.93-4.74,2.93
	c-2.65,0-4.04-1.56-4.04-4.07v-6.37c0-0.23-0.03-0.26-0.3-0.3L74,37.02c-0.18-0.02-0.2-0.07-0.2-0.47c0-0.4,0.05-0.49,0.2-0.51
	c2.65-0.58,4.09-1.4,5.73-2.98c0.15-0.14,0.18-0.19,0.58-0.19c0.4,0,0.48,0.02,0.5,0.19c0.1,0.67,0.18,1.7,0.2,2.72l2.85-0.02
	c0.25,0,0.35,0.12,0.35,0.74c0,0.63-0.1,0.7-0.35,0.7C82.99,37.21,81.9,37.21,81.04,37.18z M44.72,2.54c0-1.2,0.74-2.44,2.48-2.44
	c1.45,0,2.35,0.94,2.95,1.95c0.57-1.01,1.47-1.95,2.92-1.95c1.74,0,2.48,1.24,2.48,2.42c0,2.1-3.19,5.43-5.4,6.97
	C47.91,7.95,44.72,4.62,44.72,2.54z"/>
<path class="black" fill="#191919" d="M88.47,6.99c-5.19,7.59-9.31-5.23-2.06-2.59c-3.45-5.75,7.59-5.69,4.1,0
	C97.76,1.7,93.74,14.54,88.47,6.99L88.47,6.99z"/>
</svg>
